JosefinSans-LightItalic.ufo
<glyph name="quotedbl" format="2">
  <advance width="312"/>
  <unicode hex="0022"/>
  <outline>
    <contour>
      <point x="197" y="724" type="curve"/>
      <point x="152" y="724" type="line"/>
      <point x="122" y="474" type="line"/>
      <point x="163" y="474" type="line"/>
      <point x="174" y="558"/>
      <point x="186" y="640"/>
    </contour>
    <contour>
      <point x="331" y="724" type="curve"/>
      <point x="286" y="724" type="line"/>
      <point x="255" y="474" type="line"/>
      <point x="297" y="474" type="line"/>
      <point x="308" y="558"/>
      <point x="320" y="640"/>
    </contour>
  </outline>
</glyph>
<glyph name="dollar" format="2">
  <advance width="572"/>
  <unicode hex="0024"/>
  <outline>
    <contour>
      <point x="246" y="-68" type="line"/>
      <point x="279" y="-68" type="line"/>
      <point x="331" y="356" type="line"/>
      <point x="334" y="383" type="line"/>
      <point x="382" y="775" type="line"/>
      <point x="349" y="775" type="line"/>
      <point x="302" y="393" type="line"/>
      <point x="299" y="368" type="line"/>
    </contour>
    <component base="S"/>
  </outline>
</glyph>
<glyph name="percent" format="2">
  <advance width="779"/>
  <unicode hex="0025"/>
  <outline>
    <contour>
      <point x="232" y="240" type="curve" smooth="yes"/>
      <point x="317" y="243"/>
      <point x="362" y="328"/>
      <point x="362" y="414" type="curve" smooth="yes"/>
      <point x="362" y="533"/>
      <point x="273" y="544"/>
      <point x="249" y="544" type="curve" smooth="yes"/>
      <point x="159" y="543"/>
      <point x="113" y="458"/>
      <point x="113" y="371" type="curve" smooth="yes"/>
      <point x="113" y="251"/>
      <point x="199" y="240"/>
    </contour>
    <contour>
      <point x="232" y="275" type="curve" smooth="yes"/>
      <point x="212" y="275"/>
      <point x="156" y="281"/>
      <point x="156" y="372" type="curve" smooth="yes"/>
      <point x="156" y="434"/>
      <point x="182" y="506"/>
      <point x="244" y="508" type="curve" smooth="yes"/>
      <point x="261" y="508"/>
      <point x="320" y="503"/>
      <point x="320" y="412" type="curve" smooth="yes"/>
      <point x="320" y="352"/>
      <point x="291" y="277"/>
    </contour>
    <contour>
      <point x="561" y="-4" type="curve" smooth="yes"/>
      <point x="649" y="-4"/>
      <point x="696" y="85"/>
      <point x="696" y="168" type="curve" smooth="yes"/>
      <point x="696" y="284"/>
      <point x="613" y="300"/>
      <point x="583" y="300" type="curve" smooth="yes"/>
      <point x="493" y="300"/>
      <point x="447" y="213"/>
      <point x="447" y="125" type="curve" smooth="yes"/>
      <point x="447" y="9"/>
      <point x="531" y="-4"/>
    </contour>
    <contour>
      <point x="564" y="31" type="curve" smooth="yes"/>
      <point x="546" y="31"/>
      <point x="489" y="37"/>
      <point x="489" y="128" type="curve" smooth="yes"/>
      <point x="489" y="191"/>
      <point x="517" y="264"/>
      <point x="579" y="264" type="curve" smooth="yes"/>
      <point x="596" y="264"/>
      <point x="653" y="257"/>
      <point x="653" y="170" type="curve" smooth="yes"/>
      <point x="653" y="112"/>
      <point x="629" y="32"/>
    </contour>
    <contour>
      <point x="636" y="546" type="line"/>
      <point x="587" y="546" type="line"/>
      <point x="173" y="0" type="line"/>
      <point x="221" y="-1" type="line"/>
    </contour>
  </outline>
</glyph>
<glyph name="ampersand" format="2">
  <advance width="705"/>
  <unicode hex="0026"/>
  <outline>
    <contour>
      <point x="584" y="0" type="curve"/>
      <point x="267" y="513" type="line" smooth="yes"/>
      <point x="256" y="531"/>
      <point x="241" y="562"/>
      <point x="242" y="587" type="curve" smooth="yes"/>
      <point x="243" y="654"/>
      <point x="288" y="710"/>
      <point x="378" y="710" type="curve" smooth="yes"/>
      <point x="419" y="710"/>
      <point x="457" y="691"/>
      <point x="494" y="662" type="curve"/>
      <point x="522" y="695" type="line"/>
      <point x="490" y="724"/>
      <point x="439" y="752"/>
      <point x="376" y="752" type="curve" smooth="yes"/>
      <point x="262" y="752"/>
      <point x="193" y="683"/>
      <point x="191" y="590" type="curve" smooth="yes"/>
      <point x="189" y="554"/>
      <point x="204" y="517"/>
      <point x="222" y="489" type="curve" smooth="yes"/>
      <point x="526" y="0" type="line"/>
      <point x="526" y="0"/>
      <point x="574" y="0"/>
    </contour>
    <contour>
      <point x="310" y="359" type="curve"/>
      <point x="312" y="400" type="line"/>
      <point x="190" y="404"/>
      <point x="61" y="317"/>
      <point x="56" y="191" type="curve" smooth="yes"/>
      <point x="52" y="82"/>
      <point x="142" y="-6"/>
      <point x="275" y="-8" type="curve" smooth="yes"/>
      <point x="371" y="-10"/>
      <point x="453" y="32"/>
      <point x="493" y="92" type="curve"/>
      <point x="465" y="125" type="line"/>
      <point x="436" y="75"/>
      <point x="365" y="34"/>
      <point x="285" y="35" type="curve" smooth="yes"/>
      <point x="186" y="36"/>
      <point x="106" y="100"/>
      <point x="109" y="189" type="curve" smooth="yes"/>
      <point x="110" y="297"/>
      <point x="221" y="364"/>
    </contour>
    <contour>
      <point x="603" y="401" type="line"/>
      <point x="468" y="129" type="line"/>
      <point x="499" y="102" type="line"/>
      <point x="650" y="401" type="line"/>
    </contour>
  </outline>
</glyph>
<glyph name="parenleft" format="2">
  <advance width="344"/>
  <unicode hex="0028"/>
  <outline>
    <contour>
      <point x="103" y="241" type="curve" smooth="yes"/>
      <point x="103" y="241" type="line" smooth="yes"/>
      <point x="96" y="66"/>
      <point x="152" y="-84"/>
      <point x="217" y="-165" type="curve"/>
      <point x="253" y="-138" type="line"/>
      <point x="194" y="-59"/>
      <point x="147" y="79"/>
      <point x="152" y="242" type="curve" smooth="yes"/>
      <point x="158" y="455"/>
      <point x="260" y="623"/>
      <point x="357" y="720" type="curve"/>
      <point x="329" y="750" type="line"/>
      <point x="224" y="652"/>
      <point x="110" y="468"/>
    </contour>
  </outline>
</glyph>
<glyph name="parenright" format="2">
  <advance width="344"/>
  <unicode hex="0029"/>
  <outline>
    <contour>
      <point x="265" y="345" type="curve" smooth="yes"/>
      <point x="265" y="345" type="line" smooth="yes"/>
      <point x="271" y="520"/>
      <point x="216" y="670"/>
      <point x="151" y="751" type="curve"/>
      <point x="115" y="725" type="line"/>
      <point x="173" y="646"/>
      <point x="221" y="507"/>
      <point x="215" y="345" type="curve" smooth="yes"/>
      <point x="209" y="131"/>
      <point x="108" y="-37"/>
      <point x="10" y="-134" type="curve"/>
      <point x="39" y="-164" type="line"/>
      <point x="144" y="-66"/>
      <point x="258" y="119"/>
    </contour>
  </outline>
</glyph>
<glyph name="asterisk" format="2">
  <advance width="335"/>
  <unicode hex="002A"/>
  <outline>
    <contour>
      <point x="217" y="546" type="curve"/>
      <point x="203" y="434" type="line"/>
      <point x="235" y="434" type="line"/>
      <point x="241" y="472"/>
      <point x="245" y="509"/>
      <point x="250" y="546" type="curve"/>
      <point x="281" y="527"/>
      <point x="311" y="507"/>
      <point x="342" y="488" type="curve"/>
      <point x="349" y="498"/>
      <point x="356" y="508"/>
      <point x="363" y="518" type="curve"/>
      <point x="332" y="537"/>
      <point x="301" y="556"/>
      <point x="271" y="575" type="curve"/>
      <point x="271" y="575" type="line"/>
      <point x="307" y="594"/>
      <point x="342" y="614"/>
      <point x="379" y="633" type="curve"/>
      <point x="374" y="642"/>
      <point x="370" y="651"/>
      <point x="366" y="660" type="curve"/>
      <point x="330" y="642"/>
      <point x="294" y="622"/>
      <point x="258" y="604" type="curve"/>
      <point x="264" y="643"/>
      <point x="269" y="681"/>
      <point x="274" y="720" type="curve"/>
      <point x="238" y="720" type="line"/>
      <point x="224" y="604" type="line"/>
      <point x="194" y="623"/>
      <point x="163" y="642"/>
      <point x="132" y="661" type="curve"/>
      <point x="126" y="652"/>
      <point x="119" y="643"/>
      <point x="114" y="634" type="curve"/>
      <point x="144" y="615"/>
      <point x="174" y="595"/>
      <point x="204" y="576" type="curve"/>
      <point x="169" y="558"/>
      <point x="135" y="539"/>
      <point x="99" y="521" type="curve"/>
      <point x="104" y="511"/>
      <point x="109" y="500"/>
      <point x="113" y="490" type="curve"/>
      <point x="148" y="509"/>
      <point x="182" y="527"/>
    </contour>
  </outline>
</glyph>
<glyph name="plus" format="2">
  <advance width="546"/>
  <unicode hex="002B"/>
  <outline>
    <contour>
      <point x="297" y="413" type="line"/>
      <point x="277" y="254" type="line"/>
      <point x="118" y="254" type="line"/>
      <point x="113" y="212" type="line"/>
      <point x="272" y="212" type="line"/>
      <point x="252" y="51" type="line"/>
      <point x="296" y="51" type="line"/>
      <point x="316" y="212" type="line"/>
      <point x="475" y="212" type="line"/>
      <point x="480" y="254" type="line"/>
      <point x="321" y="254" type="line"/>
      <point x="340" y="413" type="line"/>
    </contour>
  </outline>
</glyph>
<glyph name="comma" format="2">
  <advance width="201"/>
  <unicode hex="002C"/>
  <outline>
    <contour>
      <point x="26" y="-189" type="line"/>
      <point x="83" y="-160"/>
      <point x="104" y="-97"/>
      <point x="101" y="-43" type="curve"/>
      <point x="57" y="-42" type="line"/>
      <point x="59" y="-97"/>
      <point x="41" y="-145"/>
      <point x="3" y="-170" type="curve"/>
    </contour>
  </outline>
</glyph>
<glyph name="hyphen" format="2">
  <advance width="302"/>
  <unicode hex="002D"/>
  <outline>
    <contour>
      <point x="81" y="222" type="line"/>
      <point x="76" y="180" type="line"/>
      <point x="261" y="180" type="line"/>
      <point x="266" y="222" type="line"/>
    </contour>
  </outline>
</glyph>
<glyph name="period" format="2">
  <advance width="164"/>
  <unicode hex="002E"/>
  <outline>
    <contour>
      <point x="56" y="30" type="curve" smooth="yes"/>
      <point x="56" y="30" type="line" smooth="yes"/>
      <point x="56" y="13"/>
      <point x="70" y="0"/>
      <point x="86" y="0" type="curve" smooth="yes"/>
      <point x="104" y="0"/>
      <point x="124" y="16"/>
      <point x="124" y="37" type="curve" smooth="yes"/>
      <point x="124" y="54"/>
      <point x="110" y="68"/>
      <point x="95" y="68" type="curve" smooth="yes"/>
      <point x="76" y="68"/>
      <point x="56" y="51"/>
    </contour>
  </outline>
</glyph>
<glyph name="slash" format="2">
  <advance width="348"/>
  <unicode hex="002F"/>
  <outline>
    <contour>
      <point x="432" y="740" type="curve"/>
      <point x="388" y="740" type="line"/>
      <point x="263" y="487"/>
      <point x="140" y="234"/>
      <point x="15" y="-19" type="curve"/>
      <point x="59" y="-19" type="line"/>
      <point x="183" y="234"/>
      <point x="307" y="487"/>
    </contour>
  </outline>
</glyph>
<glyph name="zero" format="2">
  <advance width="628"/>
  <unicode hex="0030"/>
  <outline>
    <contour>
      <point x="293" y="-3" type="curve"/>
      <point x="478" y="-12"/>
      <point x="585" y="148"/>
      <point x="603" y="324" type="curve"/>
      <point x="624" y="503"/>
      <point x="533" y="650"/>
      <point x="368" y="657" type="curve"/>
      <point x="156" y="666"/>
      <point x="71" y="462"/>
      <point x="56" y="323" type="curve"/>
      <point x="41" y="147"/>
      <point x="126" y="4"/>
    </contour>
    <contour>
      <point x="298" y="43" type="curve"/>
      <point x="178" y="48"/>
      <point x="90" y="148"/>
      <point x="107" y="325" type="curve"/>
      <point x="126" y="497"/>
      <point x="230" y="619"/>
      <point x="361" y="611" type="curve"/>
      <point x="481" y="606"/>
      <point x="570" y="506"/>
      <point x="553" y="329" type="curve"/>
      <point x="534" y="157"/>
      <point x="430" y="35"/>
    </contour>
  </outline>
</glyph>
<glyph name="one" format="2">
  <advance width="326"/>
  <unicode hex="0031"/>
  <outline>
    <contour>
      <point x="120" y="653" type="line"/>
      <point x="114" y="606" type="line"/>
      <point x="211" y="606" type="line"/>
      <point x="137" y="0" type="line"/>
      <point x="186" y="0" type="line"/>
      <point x="267" y="653" type="line"/>
    </contour>
  </outline>
</glyph>
<glyph name="two" format="2">
  <advance width="549"/>
  <unicode hex="0032"/>
  <outline>
    <contour>
      <point x="60" y="0" type="curve"/>
      <point x="478" y="0" type="line"/>
      <point x="484" y="47" type="line"/>
      <point x="145" y="47" type="line"/>
      <point x="164" y="37" type="line"/>
      <point x="427" y="283"/>
      <point x="467" y="377"/>
      <point x="469" y="479" type="curve" smooth="yes"/>
      <point x="472" y="606"/>
      <point x="371" y="661"/>
      <point x="279" y="661" type="curve" smooth="yes"/>
      <point x="106" y="661"/>
      <point x="79" y="520"/>
      <point x="79" y="452" type="curve" smooth="yes"/>
      <point x="79" y="403"/>
      <point x="98" y="364"/>
      <point x="121" y="334" type="curve"/>
      <point x="153" y="361" type="line"/>
      <point x="134" y="385"/>
      <point x="127" y="416"/>
      <point x="127" y="454" type="curve" smooth="yes"/>
      <point x="127" y="495"/>
      <point x="140" y="615"/>
      <point x="277" y="615" type="curve" smooth="yes"/>
      <point x="352" y="615"/>
      <point x="419" y="574"/>
      <point x="419" y="475" type="curve" smooth="yes"/>
      <point x="419" y="401"/>
      <point x="413" y="310"/>
    </contour>
  </outline>
</glyph>
<glyph name="three" format="2">
  <advance width="493"/>
  <unicode hex="0033"/>
  <outline>
    <contour>
      <point x="437" y="653" type="line"/>
      <point x="107" y="653" type="line"/>
      <point x="101" y="607" type="line"/>
      <point x="373" y="607" type="line"/>
      <point x="354" y="616" type="line"/>
      <point x="149" y="357" type="line"/>
      <point x="153" y="353" type="line"/>
      <point x="174" y="364"/>
      <point x="212" y="372"/>
      <point x="246" y="370" type="curve" smooth="yes"/>
      <point x="337" y="366"/>
      <point x="396" y="314"/>
      <point x="396" y="233" type="curve" smooth="yes"/>
      <point x="396" y="139"/>
      <point x="341" y="45"/>
      <point x="219" y="41" type="curve" smooth="yes"/>
      <point x="167" y="39"/>
      <point x="109" y="53"/>
      <point x="68" y="105" type="curve"/>
      <point x="41" y="73" type="line"/>
      <point x="89" y="9"/>
      <point x="159" y="-9"/>
      <point x="222" y="-6" type="curve" smooth="yes"/>
      <point x="395" y="3"/>
      <point x="446" y="140"/>
      <point x="446" y="232" type="curve" smooth="yes"/>
      <point x="446" y="340"/>
      <point x="371" y="405"/>
      <point x="274" y="407" type="curve"/>
      <point x="245" y="409"/>
      <point x="214" y="407"/>
      <point x="183" y="393" type="curve"/>
      <point x="222" y="379" type="line"/>
    </contour>
  </outline>
</glyph>
<glyph name="five" format="2">
  <advance width="528"/>
  <unicode hex="0035"/>
  <outline>
    <contour>
      <point x="235" y="-7" type="curve" smooth="yes"/>
      <point x="418" y="-5"/>
      <point x="458" y="142"/>
      <point x="458" y="211" type="curve" smooth="yes"/>
      <point x="458" y="329"/>
      <point x="370" y="406"/>
      <point x="270" y="411" type="curve" smooth="yes"/>
      <point x="238" y="412"/>
      <point x="200" y="406"/>
      <point x="177" y="394" type="curve"/>
      <point x="179" y="378" type="line"/>
      <point x="211" y="607" type="line"/>
      <point x="468" y="607" type="line"/>
      <point x="474" y="653" type="line"/>
      <point x="178" y="653" type="line"/>
      <point x="129" y="335" type="line"/>
      <point x="133" y="334" type="line"/>
      <point x="165" y="358"/>
      <point x="207" y="372"/>
      <point x="250" y="370" type="curve" smooth="yes"/>
      <point x="336" y="365"/>
      <point x="408" y="303"/>
      <point x="408" y="208" type="curve" smooth="yes"/>
      <point x="408" y="123"/>
      <point x="360" y="41"/>
      <point x="234" y="41" type="curve" smooth="yes"/>
      <point x="207" y="41"/>
      <point x="147" y="45"/>
      <point x="105" y="100" type="curve"/>
      <point x="74" y="65" type="line"/>
      <point x="127" y="3"/>
      <point x="204" y="-7"/>
    </contour>
  </outline>
</glyph>
<glyph name="six" format="2">
  <advance width="536"/>
  <unicode hex="0036"/>
  <outline>
    <contour>
      <point x="256" y="-7" type="curve" smooth="yes"/>
      <point x="390" y="-7"/>
      <point x="483" y="102"/>
      <point x="483" y="214" type="curve" smooth="yes"/>
      <point x="483" y="329"/>
      <point x="392" y="405"/>
      <point x="294" y="405" type="curve" smooth="yes"/>
      <point x="223" y="405"/>
      <point x="161" y="377"/>
      <point x="120" y="323" type="curve"/>
      <point x="132" y="312" type="line"/>
      <point x="168" y="405"/>
      <point x="275" y="513"/>
      <point x="452" y="600" type="curve"/>
      <point x="425" y="639" type="line"/>
      <point x="112" y="460"/>
      <point x="52" y="307"/>
      <point x="52" y="197" type="curve" smooth="yes"/>
      <point x="52" y="79"/>
      <point x="139" y="-7"/>
    </contour>
    <contour>
      <point x="257" y="37" type="curve" smooth="yes"/>
      <point x="166" y="37"/>
      <point x="99" y="106"/>
      <point x="99" y="192" type="curve" smooth="yes"/>
      <point x="99" y="237"/>
      <point x="131" y="364"/>
      <point x="274" y="364" type="curve" smooth="yes"/>
      <point x="364" y="364"/>
      <point x="434" y="297"/>
      <point x="434" y="210" type="curve" smooth="yes"/>
      <point x="434" y="151"/>
      <point x="396" y="37"/>
    </contour>
  </outline>
</glyph>
<glyph name="seven" format="2">
  <advance width="476"/>
  <unicode hex="0037"/>
  <outline>
    <contour>
      <point x="492" y="653" type="line"/>
      <point x="78" y="653" type="line"/>
      <point x="72" y="607" type="line"/>
      <point x="438" y="607" type="line"/>
      <point x="412" y="618" type="line"/>
      <point x="68" y="0" type="line"/>
      <point x="132" y="0" type="line"/>
    </contour>
  </outline>
</glyph>
<glyph name="eight" format="2">
  <advance width="526"/>
  <unicode hex="0038"/>
  <outline>
    <contour>
      <point x="48" y="188" type="curve" smooth="yes"/>
      <point x="48" y="81"/>
      <point x="133" y="-7"/>
      <point x="251" y="-7" type="curve" smooth="yes"/>
      <point x="388" y="-7"/>
      <point x="480" y="110"/>
      <point x="480" y="214" type="curve" smooth="yes"/>
      <point x="480" y="297"/>
      <point x="426" y="362"/>
      <point x="358" y="388" type="curve"/>
      <point x="415" y="412"/>
      <point x="456" y="458"/>
      <point x="456" y="523" type="curve" smooth="yes"/>
      <point x="456" y="600"/>
      <point x="397" y="661"/>
      <point x="305" y="661" type="curve" smooth="yes"/>
      <point x="207" y="661"/>
      <point x="151" y="593"/>
      <point x="144" y="516" type="curve" smooth="yes"/>
      <point x="139" y="464"/>
      <point x="168" y="419"/>
      <point x="213" y="396" type="curve"/>
      <point x="123" y="373"/>
      <point x="48" y="294"/>
    </contour>
    <contour>
      <point x="97" y="191" type="curve" smooth="yes"/>
      <point x="97" y="286"/>
      <point x="174" y="368"/>
      <point x="274" y="368" type="curve" smooth="yes"/>
      <point x="363" y="368"/>
      <point x="432" y="296"/>
      <point x="432" y="212" type="curve" smooth="yes"/>
      <point x="432" y="116"/>
      <point x="349" y="35"/>
      <point x="253" y="35" type="curve" smooth="yes"/>
      <point x="161" y="35"/>
      <point x="97" y="106"/>
    </contour>
    <contour>
      <point x="190" y="513" type="curve" smooth="yes"/>
      <point x="199" y="580"/>
      <point x="247" y="620"/>
      <point x="307" y="620" type="curve" smooth="yes"/>
      <point x="366" y="620"/>
      <point x="408" y="579"/>
      <point x="408" y="518" type="curve" smooth="yes"/>
      <point x="408" y="479"/>
      <point x="382" y="409"/>
      <point x="296" y="409" type="curve" smooth="yes"/>
      <point x="232" y="409"/>
      <point x="185" y="456"/>
    </contour>
  </outline>
</glyph>
<glyph name="nine" format="2">
  <advance width="536"/>
  <unicode hex="0039"/>
  <outline>
    <contour>
      <point x="257" y="225" type="curve" smooth="yes"/>
      <point x="339" y="222"/>
      <point x="391" y="247"/>
      <point x="442" y="298" type="curve"/>
      <point x="422" y="311" type="line"/>
      <point x="390" y="235"/>
      <point x="280" y="131"/>
      <point x="95" y="38" type="curve"/>
      <point x="123" y="-1" type="line"/>
      <point x="319" y="110"/>
      <point x="489" y="237"/>
      <point x="506" y="421" type="curve"/>
      <point x="517" y="546"/>
      <point x="430" y="633"/>
      <point x="311" y="637" type="curve" smooth="yes"/>
      <point x="180" y="642"/>
      <point x="85" y="542"/>
      <point x="75" y="434" type="curve" smooth="yes"/>
      <point x="65" y="318"/>
      <point x="152" y="230"/>
    </contour>
    <contour>
      <point x="273" y="267" type="curve" smooth="yes"/>
      <point x="182" y="271"/>
      <point x="116" y="345"/>
      <point x="125" y="435" type="curve" smooth="yes"/>
      <point x="135" y="522"/>
      <point x="211" y="598"/>
      <point x="310" y="593" type="curve" smooth="yes"/>
      <point x="400" y="588"/>
      <point x="464" y="519"/>
      <point x="458" y="427" type="curve"/>
      <point x="443" y="310"/>
      <point x="375" y="261"/>
    </contour>
  </outline>
</glyph>
<glyph name="less" format="2">
  <advance width="647"/>
  <unicode hex="003C"/>
  <outline>
    <contour>
      <point x="521" y="-15" type="curve"/>
      <point x="528" y="43" type="line"/>
      <point x="528" y="43" type="line"/>
      <point x="423" y="108"/>
      <point x="316" y="174"/>
      <point x="210" y="239" type="curve"/>
      <point x="332" y="305"/>
      <point x="454" y="371"/>
      <point x="576" y="436" type="curve"/>
      <point x="583" y="493" type="line"/>
      <point x="426" y="409"/>
      <point x="269" y="324"/>
      <point x="112" y="239" type="curve"/>
      <point x="249" y="155"/>
      <point x="384" y="70"/>
    </contour>
  </outline>
</glyph>
<glyph name="equal" format="2">
  <advance width="712"/>
  <unicode hex="003D"/>
  <outline>
    <contour>
      <point x="122" y="177" type="line"/>
      <point x="117" y="135" type="line"/>
      <point x="625" y="135" type="line"/>
      <point x="631" y="177" type="line"/>
    </contour>
    <contour>
      <point x="146" y="372" type="line"/>
      <point x="141" y="330" type="line"/>
      <point x="649" y="330" type="line"/>
      <point x="655" y="372" type="line"/>
    </contour>
  </outline>
</glyph>
<glyph name="greater" format="2">
  <advance width="625"/>
  <unicode hex="003E"/>
  <outline>
    <contour>
      <point x="107" y="43" type="curve"/>
      <point x="100" y="-15" type="line"/>
      <point x="100" y="-15" type="line"/>
      <point x="257" y="70"/>
      <point x="414" y="155"/>
      <point x="571" y="239" type="curve"/>
      <point x="434" y="324"/>
      <point x="299" y="409"/>
      <point x="162" y="493" type="curve"/>
      <point x="155" y="436" type="line"/>
      <point x="260" y="371"/>
      <point x="367" y="305"/>
      <point x="473" y="239" type="curve"/>
      <point x="351" y="174"/>
      <point x="229" y="108"/>
    </contour>
  </outline>
</glyph>
<glyph name="question" format="2">
  <advance width="450"/>
  <unicode hex="003F"/>
  <outline>
    <contour>
      <point x="205" y="262" type="curve" smooth="yes"/>
      <point x="193" y="165" type="line"/>
      <point x="237" y="165" type="line"/>
      <point x="247" y="243" type="line" smooth="yes"/>
      <point x="257" y="324"/>
      <point x="305" y="336"/>
      <point x="355" y="369" type="curve" smooth="yes"/>
      <point x="429" y="419"/>
      <point x="475" y="478"/>
      <point x="475" y="560" type="curve" smooth="yes"/>
      <point x="475" y="657"/>
      <point x="404" y="736"/>
      <point x="301" y="736" type="curve" smooth="yes"/>
      <point x="194" y="736"/>
      <point x="123" y="663"/>
      <point x="92" y="594" type="curve"/>
      <point x="103" y="589"/>
      <point x="116" y="585"/>
      <point x="128" y="581" type="curve"/>
      <point x="128" y="581" type="line"/>
      <point x="158" y="650"/>
      <point x="218" y="693"/>
      <point x="296" y="693" type="curve" smooth="yes"/>
      <point x="376" y="693"/>
      <point x="431" y="636"/>
      <point x="431" y="557" type="curve" smooth="yes"/>
      <point x="431" y="502"/>
      <point x="405" y="453"/>
      <point x="350" y="410" type="curve" smooth="yes"/>
      <point x="280" y="357"/>
      <point x="216" y="346"/>
    </contour>
    <contour>
      <point x="196" y="15" type="curve" smooth="yes"/>
      <point x="196" y="15" type="line" smooth="yes"/>
      <point x="214" y="15"/>
      <point x="234" y="30"/>
      <point x="234" y="52" type="curve" smooth="yes"/>
      <point x="234" y="69"/>
      <point x="219" y="82"/>
      <point x="204" y="82" type="curve" smooth="yes"/>
      <point x="187" y="82"/>
      <point x="167" y="66"/>
      <point x="167" y="45" type="curve" smooth="yes"/>
      <point x="167" y="27"/>
      <point x="181" y="15"/>
    </contour>
  </outline>
</glyph>
<glyph name="at" format="2">
  <advance width="982"/>
  <unicode hex="0040"/>
  <outline>
    <contour>
      <point x="410" y="-212" type="curve"/>
      <point x="498" y="-212"/>
      <point x="589" y="-184"/>
      <point x="663" y="-133" type="curve"/>
      <point x="643" y="-103" type="line"/>
      <point x="575" y="-145"/>
      <point x="498" y="-173"/>
      <point x="417" y="-173" type="curve"/>
      <point x="216" y="-173"/>
      <point x="91" y="-61"/>
      <point x="91" y="147" type="curve"/>
      <point x="91" y="290"/>
      <point x="211" y="571"/>
      <point x="563" y="571" type="curve"/>
      <point x="762" y="571"/>
      <point x="892" y="439"/>
      <point x="892" y="272" type="curve"/>
      <point x="892" y="147"/>
      <point x="813" y="34"/>
      <point x="727" y="34" type="curve"/>
      <point x="674" y="34"/>
      <point x="665" y="77"/>
      <point x="670" y="117" type="curve"/>
      <point x="709" y="391" type="line"/>
      <point x="666" y="391" type="line"/>
      <point x="647" y="294" type="line"/>
      <point x="626" y="357"/>
      <point x="568" y="403"/>
      <point x="481" y="403" type="curve"/>
      <point x="355" y="403"/>
      <point x="258" y="297"/>
      <point x="258" y="173" type="curve"/>
      <point x="255" y="67"/>
      <point x="333" y="-8"/>
      <point x="441" y="-8" type="curve"/>
      <point x="520" y="-8"/>
      <point x="600" y="50"/>
      <point x="635" y="114" type="curve"/>
      <point x="626" y="139" type="line"/>
      <point x="607" y="48"/>
      <point x="642" y="-9"/>
      <point x="718" y="-9" type="curve"/>
      <point x="842" y="-9"/>
      <point x="938" y="124"/>
      <point x="938" y="272" type="curve"/>
      <point x="938" y="463"/>
      <point x="791" y="610"/>
      <point x="570" y="610" type="curve"/>
      <point x="190" y="610"/>
      <point x="46" y="327"/>
      <point x="46" y="144" type="curve"/>
      <point x="46" y="-85"/>
      <point x="191" y="-212"/>
    </contour>
    <contour>
      <point x="456" y="32" type="curve"/>
      <point x="368" y="32"/>
      <point x="307" y="95"/>
      <point x="308" y="178" type="curve"/>
      <point x="308" y="279"/>
      <point x="391" y="363"/>
      <point x="486" y="363" type="curve"/>
      <point x="570" y="363"/>
      <point x="632" y="307"/>
      <point x="638" y="234" type="curve"/>
      <point x="630" y="178" type="line"/>
      <point x="613" y="92"/>
      <point x="533" y="32"/>
    </contour>
  </outline>
</glyph>
<glyph name="B" format="2">
  <advance width="590"/>
  <unicode hex="0042"/>
  <anchor x="269" y="0" name="bottom"/>
  <anchor x="317" y="700" name="top"/>
  <outline>
    <contour>
      <point x="332" y="710" type="curve" smooth="yes"/>
      <point x="176" y="710" type="line"/>
      <point x="89" y="0" type="line"/>
      <point x="288" y="0" type="line" smooth="yes"/>
      <point x="422" y="0"/>
      <point x="519" y="68"/>
      <point x="519" y="208" type="curve" smooth="yes"/>
      <point x="519" y="295"/>
      <point x="456" y="347"/>
      <point x="383" y="360" type="curve"/>
      <point x="384" y="356" type="line"/>
      <point x="493" y="378"/>
      <point x="526" y="481"/>
      <point x="526" y="561" type="curve" smooth="yes"/>
      <point x="526" y="667"/>
      <point x="456" y="710"/>
    </contour>
    <contour>
      <point x="319" y="378" type="curve" smooth="yes"/>
      <point x="185" y="378" type="line"/>
      <point x="220" y="664" type="line"/>
      <point x="328" y="664" type="line" smooth="yes"/>
      <point x="422" y="664"/>
      <point x="475" y="630"/>
      <point x="475" y="547" type="curve" smooth="yes"/>
      <point x="475" y="496"/>
      <point x="452" y="378"/>
    </contour>
    <contour>
      <point x="290" y="45" type="curve" smooth="yes"/>
      <point x="145" y="45" type="line"/>
      <point x="179" y="335" type="line"/>
      <point x="314" y="335" type="line" smooth="yes"/>
      <point x="387" y="335"/>
      <point x="470" y="297"/>
      <point x="470" y="208" type="curve" smooth="yes"/>
      <point x="470" y="123"/>
      <point x="418" y="45"/>
    </contour>
  </outline>
</glyph>
<glyph name="C" format="2">
  <advance width="697"/>
  <unicode hex="0043"/>
  <anchor x="426" y="-3" name="bottom"/>
  <anchor x="459" y="707" name="top"/>
  <outline>
    <contour>
      <point x="607" y="32" type="curve"/>
      <point x="589" y="76" type="line"/>
      <point x="547" y="56"/>
      <point x="493" y="35"/>
      <point x="429" y="35" type="curve" smooth="yes"/>
      <point x="265" y="35"/>
      <point x="138" y="152"/>
      <point x="138" y="323" type="curve" smooth="yes"/>
      <point x="138" y="486"/>
      <point x="234" y="668"/>
      <point x="472" y="665" type="curve" smooth="yes"/>
      <point x="543" y="664"/>
      <point x="607" y="638"/>
      <point x="653" y="603" type="curve"/>
      <point x="679" y="646" type="line"/>
      <point x="625" y="684"/>
      <point x="553" y="712"/>
      <point x="469" y="712" type="curve" smooth="yes"/>
      <point x="185" y="712"/>
      <point x="88" y="486"/>
      <point x="88" y="320" type="curve" smooth="yes"/>
      <point x="88" y="114"/>
      <point x="243" y="-12"/>
      <point x="428" y="-12" type="curve" smooth="yes"/>
      <point x="500" y="-12"/>
      <point x="563" y="9"/>
    </contour>
  </outline>
</glyph>
<glyph name="D" format="2">
  <advance width="738"/>
  <unicode hex="0044"/>
  <anchor x="344" y="0" name="bottom"/>
  <anchor x="157" y="350" name="center"/>
  <anchor x="400" y="700" name="top"/>
  <outline>
    <contour>
      <point x="89" y="0" type="line"/>
      <point x="286" y="0" type="line" smooth="yes"/>
      <point x="506" y="0"/>
      <point x="682" y="135"/>
      <point x="688" y="379" type="curve" smooth="yes"/>
      <point x="695" y="550"/>
      <point x="613" y="710"/>
      <point x="339" y="710" type="curve" smooth="yes"/>
      <point x="176" y="710" type="line"/>
    </contour>
    <contour>
      <point x="143" y="47" type="line"/>
      <point x="218" y="662" type="line"/>
      <point x="351" y="662" type="line" smooth="yes"/>
      <point x="553" y="662"/>
      <point x="645" y="547"/>
      <point x="639" y="380" type="curve" smooth="yes"/>
      <point x="634" y="161"/>
      <point x="480" y="47"/>
      <point x="290" y="47" type="curve"/>
    </contour>
  </outline>
</glyph>
<glyph name="E" format="2">
  <advance width="639"/>
  <unicode hex="0045"/>
  <anchor x="310" y="0" name="bottom"/>
  <anchor x="530" y="10" name="ogonek"/>
  <anchor x="383" y="708" name="top"/>
  <anchor x="62" y="700" name="topleft"/>
  <outline>
    <contour>
      <point x="176" y="710" type="line"/>
      <point x="89" y="0" type="line"/>
      <point x="541" y="0" type="line"/>
      <point x="547" y="47" type="line"/>
      <point x="145" y="47" type="line"/>
      <point x="179" y="334" type="line"/>
      <point x="528" y="334" type="line"/>
      <point x="534" y="380" type="line"/>
      <point x="185" y="380" type="line"/>
      <point x="220" y="664" type="line"/>
      <point x="608" y="664" type="line"/>
      <point x="614" y="710" type="line"/>
    </contour>
  </outline>
</glyph>
<glyph name="G" format="2">
  <advance width="746"/>
  <unicode hex="0047"/>
  <anchor x="381" y="0" name="bottom"/>
  <anchor x="458" y="711" name="top"/>
  <outline>
    <contour>
      <point x="633" y="35" type="curve"/>
      <point x="668" y="318" type="line"/>
      <point x="457" y="318" type="line"/>
      <point x="451" y="272" type="line"/>
      <point x="612" y="272" type="line"/>
      <point x="587" y="65" type="line"/>
      <point x="541" y="44"/>
      <point x="472" y="34"/>
      <point x="416" y="37" type="curve" smooth="yes"/>
      <point x="239" y="48"/>
      <point x="133" y="172"/>
      <point x="137" y="331" type="curve" smooth="yes"/>
      <point x="142" y="476"/>
      <point x="239" y="666"/>
      <point x="479" y="663" type="curve" smooth="yes"/>
      <point x="545" y="663"/>
      <point x="614" y="639"/>
      <point x="662" y="605" type="curve"/>
      <point x="685" y="648" type="line"/>
      <point x="630" y="686"/>
      <point x="560" y="710"/>
      <point x="481" y="712" type="curve" smooth="yes"/>
      <point x="222" y="715"/>
      <point x="96" y="511"/>
      <point x="87" y="330" type="curve" smooth="yes"/>
      <point x="80" y="143"/>
      <point x="209" y="-8"/>
      <point x="428" y="-11" type="curve" smooth="yes"/>
      <point x="498" y="-13"/>
      <point x="585" y="7"/>
    </contour>
  </outline>
</glyph>
<glyph name="H" format="2">
  <advance width="753"/>
  <unicode hex="0048"/>
  <anchor x="351" y="0" name="bottom"/>
  <anchor x="393" y="353" name="center"/>
  <anchor x="435" y="711" name="top"/>
  <anchor x="46" y="700" name="topleft"/>
  <outline>
    <contour>
      <point x="701" y="710" type="line"/>
      <point x="651" y="710" type="line"/>
      <point x="611" y="381" type="line"/>
      <point x="185" y="381" type="line"/>
      <point x="226" y="710" type="line"/>
      <point x="176" y="710" type="line"/>
      <point x="89" y="0" type="line"/>
      <point x="139" y="0" type="line"/>
      <point x="180" y="334" type="line"/>
      <point x="606" y="334" type="line"/>
      <point x="564" y="0" type="line"/>
      <point x="614" y="0" type="line"/>
    </contour>
  </outline>
</glyph>
<glyph name="I" format="2">
  <advance width="278"/>
  <unicode hex="0049"/>
  <anchor x="113" y="0" name="bottom"/>
  <anchor x="137" y="7" name="ogonek"/>
  <anchor x="200" y="708" name="top"/>
  <anchor x="59" y="700" name="topleft"/>
  <outline>
    <contour>
      <point x="176" y="710" type="line"/>
      <point x="89" y="0" type="line"/>
      <point x="139" y="0" type="line"/>
      <point x="226" y="710" type="line"/>
    </contour>
  </outline>
</glyph>
<glyph name="J" format="2">
  <advance width="332"/>
  <unicode hex="004A"/>
  <anchor x="137" y="0" name="bottom"/>
  <anchor x="255" y="710" name="top"/>
  <outline>
    <contour>
      <point x="206" y="107" type="curve" smooth="yes"/>
      <point x="280" y="710" type="line"/>
      <point x="232" y="710" type="line"/>
      <point x="158" y="110" type="line" smooth="yes"/>
      <point x="142" y="-21"/>
      <point x="62" y="-92"/>
      <point x="-34" y="-97" type="curve"/>
      <point x="-40" y="-145" type="line"/>
      <point x="-40" y="-145" type="line"/>
      <point x="81" y="-141"/>
      <point x="187" y="-52"/>
    </contour>
  </outline>
</glyph>
<glyph name="K" format="2">
  <advance width="655"/>
  <unicode hex="004B"/>
  <anchor x="303" y="0" name="bottom"/>
  <anchor x="391" y="710" name="top"/>
  <outline>
    <contour>
      <point x="185" y="390" type="line"/>
      <point x="225" y="710" type="line"/>
      <point x="176" y="710" type="line"/>
      <point x="89" y="0" type="line"/>
      <point x="138" y="0" type="line"/>
      <point x="175" y="306" type="line"/>
      <point x="271" y="388" type="line"/>
      <point x="524" y="0" type="line"/>
      <point x="586" y="0" type="line"/>
      <point x="311" y="419" type="line"/>
      <point x="640" y="710" type="line"/>
      <point x="577" y="710" type="line"/>
      <point x="183" y="364" type="line"/>
      <point x="179" y="355" type="line"/>
    </contour>
  </outline>
</glyph>
<glyph name="L" format="2">
  <advance width="578"/>
  <unicode hex="004C"/>
  <anchor x="302" y="0" name="bottom"/>
  <anchor x="491" y="355" name="center"/>
  <anchor x="195" y="715" name="top"/>
  <anchor x="619" y="710" name="topright"/>
  <outline>
    <contour>
      <point x="176" y="710" type="line"/>
      <point x="89" y="0" type="line"/>
      <point x="527" y="0" type="line"/>
      <point x="533" y="47" type="line"/>
      <point x="143" y="47" type="line"/>
      <point x="224" y="710" type="line"/>
    </contour>
  </outline>
</glyph>
<glyph name="M" format="2">
  <advance width="909"/>
  <unicode hex="004D"/>
  <anchor x="435" y="0" name="bottom"/>
  <anchor x="509" y="700" name="top"/>
  <outline>
    <contour>
      <point x="137" y="0" type="line"/>
      <point x="212" y="611" type="line"/>
      <point x="201" y="589" type="line"/>
      <point x="448" y="172" type="line"/>
      <point x="450" y="172" type="line"/>
      <point x="797" y="589" type="line"/>
      <point x="796" y="613" type="line"/>
      <point x="721" y="0" type="line"/>
      <point x="769" y="0" type="line"/>
      <point x="859" y="726" type="line"/>
      <point x="858" y="726" type="line"/>
      <point x="446" y="232" type="line"/>
      <point x="469" y="229" type="line"/>
      <point x="180" y="726" type="line"/>
      <point x="179" y="726" type="line"/>
      <point x="89" y="0" type="line"/>
    </contour>
  </outline>
</glyph>
<glyph name="N" format="2">
  <advance width="824"/>
  <unicode hex="004E"/>
  <anchor x="391" y="0" name="bottom"/>
  <anchor x="471" y="700" name="top"/>
  <outline>
    <contour>
      <point x="683" y="-17" type="line"/>
      <point x="772" y="710" type="line"/>
      <point x="725" y="710" type="line"/>
      <point x="649" y="85" type="line"/>
      <point x="662" y="86" type="line"/>
      <point x="180" y="725" type="line"/>
      <point x="178" y="725" type="line"/>
      <point x="89" y="0" type="line"/>
      <point x="136" y="0" type="line"/>
      <point x="212" y="624" type="line"/>
      <point x="200" y="618" type="line"/>
      <point x="681" y="-17" type="line"/>
    </contour>
  </outline>
</glyph>
<glyph name="O" format="2">
  <advance width="865"/>
  <unicode hex="004F"/>
  <anchor x="426" y="0" name="bottom"/>
  <anchor x="457" y="350" name="center"/>
  <anchor x="519" y="3" name="ogonek"/>
  <anchor x="489" y="708" name="top"/>
  <anchor x="72" y="700" name="topleft"/>
  <anchor x="718" y="595" name="topright"/>
  <outline>
    <contour>
      <point x="429" y="-7" type="curve" smooth="yes"/>
      <point x="681" y="-7"/>
      <point x="815" y="206"/>
      <point x="815" y="381" type="curve" smooth="yes"/>
      <point x="815" y="587"/>
      <point x="659" y="717"/>
      <point x="474" y="717" type="curve" smooth="yes"/>
      <point x="222" y="717"/>
      <point x="88" y="504"/>
      <point x="88" y="328" type="curve" smooth="yes"/>
      <point x="88" y="123"/>
      <point x="244" y="-7"/>
    </contour>
    <contour>
      <point x="430" y="40" type="curve" smooth="yes"/>
      <point x="261" y="40"/>
      <point x="138" y="173"/>
      <point x="138" y="330" type="curve" smooth="yes"/>
      <point x="138" y="484"/>
      <point x="254" y="670"/>
      <point x="472" y="670" type="curve" smooth="yes"/>
      <point x="640" y="670"/>
      <point x="765" y="536"/>
      <point x="765" y="379" type="curve" smooth="yes"/>
      <point x="765" y="226"/>
      <point x="648" y="40"/>
    </contour>
  </outline>
</glyph>
<glyph name="P" format="2">
  <advance width="550"/>
  <unicode hex="0050"/>
  <outline>
    <contour>
      <point x="338" y="710" type="curve" smooth="yes"/>
      <point x="176" y="710" type="line"/>
      <point x="89" y="0" type="line"/>
      <point x="139" y="0" type="line"/>
      <point x="175" y="298" type="line"/>
      <point x="283" y="298" type="line" smooth="yes"/>
      <point x="461" y="298"/>
      <point x="537" y="421"/>
      <point x="537" y="532" type="curve" smooth="yes"/>
      <point x="537" y="656"/>
      <point x="435" y="710"/>
    </contour>
    <contour>
      <point x="290" y="345" type="curve" smooth="yes"/>
      <point x="181" y="345" type="line"/>
      <point x="220" y="662" type="line"/>
      <point x="330" y="662" type="line" smooth="yes"/>
      <point x="428" y="662"/>
      <point x="486" y="602"/>
      <point x="486" y="526" type="curve" smooth="yes"/>
      <point x="486" y="462"/>
      <point x="441" y="345"/>
    </contour>
  </outline>
</glyph>
<glyph name="S" format="2">
  <advance width="543"/>
  <unicode hex="0053"/>
  <anchor x="255" y="0" name="bottom"/>
  <anchor x="329" y="700" name="top"/>
  <outline>
    <contour>
      <point x="501" y="617" type="curve"/>
      <point x="525" y="653" type="line"/>
      <point x="473" y="684"/>
      <point x="401" y="709"/>
      <point x="329" y="711" type="curve" smooth="yes"/>
      <point x="217" y="711"/>
      <point x="125" y="646"/>
      <point x="121" y="540" type="curve" smooth="yes"/>
      <point x="116" y="442"/>
      <point x="206" y="398"/>
      <point x="290" y="360" type="curve" smooth="yes"/>
      <point x="368" y="326"/>
      <point x="444" y="285"/>
      <point x="442" y="199" type="curve" smooth="yes"/>
      <point x="440" y="120"/>
      <point x="378" y="36"/>
      <point x="260" y="37" type="curve" smooth="yes"/>
      <point x="178" y="38"/>
      <point x="99" y="77"/>
      <point x="58" y="118" type="curve"/>
      <point x="31" y="80" type="line"/>
      <point x="76" y="39"/>
      <point x="153" y="-5"/>
      <point x="258" y="-7" type="curve" smooth="yes"/>
      <point x="423" y="-9"/>
      <point x="489" y="110"/>
      <point x="493" y="199" type="curve" smooth="yes"/>
      <point x="497" y="315"/>
      <point x="408" y="360"/>
      <point x="323" y="398" type="curve" smooth="yes"/>
      <point x="244" y="435"/>
      <point x="169" y="472"/>
      <point x="171" y="543" type="curve" smooth="yes"/>
      <point x="173" y="586"/>
      <point x="207" y="668"/>
      <point x="330" y="668" type="curve" smooth="yes"/>
      <point x="393" y="667"/>
      <point x="460" y="640"/>
    </contour>
  </outline>
</glyph>
<glyph name="T" format="2">
  <advance width="577"/>
  <unicode hex="0054"/>
  <anchor x="263" y="0" name="bottom"/>
  <anchor x="303" y="350" name="center"/>
  <anchor x="350" y="700" name="top"/>
  <outline>
    <contour>
      <point x="118" y="710" type="line"/>
      <point x="112" y="662" type="line"/>
      <point x="319" y="662" type="line"/>
      <point x="238" y="0" type="line"/>
      <point x="288" y="0" type="line"/>
      <point x="369" y="662" type="line"/>
      <point x="577" y="662" type="line"/>
      <point x="583" y="710" type="line"/>
    </contour>
  </outline>
</glyph>
<glyph name="U" format="2">
  <advance width="717"/>
  <unicode hex="0055"/>
  <anchor x="333" y="0" name="bottom"/>
  <anchor x="445" y="10" name="ogonek"/>
  <anchor x="421" y="708" name="top"/>
  <anchor x="647" y="604" name="topright"/>
  <outline>
    <contour>
      <point x="169" y="240" type="curve" smooth="yes"/>
      <point x="226" y="710" type="line"/>
      <point x="176" y="710" type="line"/>
      <point x="118" y="237" type="line" smooth="yes"/>
      <point x="99" y="82"/>
      <point x="194" y="-8"/>
      <point x="332" y="-8" type="curve" smooth="yes"/>
      <point x="332" y="-8" type="line" smooth="yes"/>
      <point x="484" y="-8"/>
      <point x="587" y="82"/>
      <point x="607" y="237" type="curve" smooth="yes"/>
      <point x="664" y="710" type="line"/>
      <point x="614" y="710" type="line"/>
      <point x="557" y="240" type="line" smooth="yes"/>
      <point x="542" y="116"/>
      <point x="459" y="39"/>
      <point x="338" y="39" type="curve" smooth="yes"/>
      <point x="225" y="39"/>
      <point x="153" y="116"/>
    </contour>
  </outline>
</glyph>
<glyph name="V" format="2">
  <advance width="694"/>
  <unicode hex="0056"/>
  <anchor x="323" y="0" name="bottom"/>
  <anchor x="386" y="700" name="top"/>
  <outline>
    <contour>
      <point x="319" y="-29" type="line"/>
      <point x="321" y="-29" type="line"/>
      <point x="712" y="710" type="line"/>
      <point x="656" y="710" type="line"/>
      <point x="319" y="58" type="line"/>
      <point x="346" y="54" type="line"/>
      <point x="165" y="710" type="line"/>
      <point x="108" y="710" type="line"/>
    </contour>
  </outline>
</glyph>
<glyph name="W" format="2">
  <advance width="985"/>
  <unicode hex="0057"/>
  <anchor x="491" y="0" name="bottom"/>
  <anchor x="579" y="710" name="top"/>
  <outline>
    <contour>
      <point x="108" y="708" type="line"/>
      <point x="298" y="-33" type="line"/>
      <point x="523" y="406" type="line"/>
      <point x="507" y="469" type="line"/>
      <point x="310" y="72" type="line"/>
      <point x="320" y="69" type="line"/>
      <point x="164" y="708" type="line"/>
    </contour>
    <contour>
      <point x="436" y="708" type="line"/>
      <point x="628" y="-32" type="line"/>
      <point x="1003" y="708" type="line"/>
      <point x="951" y="708" type="line"/>
      <point x="636" y="73" type="line"/>
      <point x="650" y="69" type="line"/>
      <point x="485" y="708" type="line"/>
    </contour>
  </outline>
</glyph>
<glyph name="X" format="2">
  <advance width="608"/>
  <unicode hex="0058"/>
  <outline>
    <contour>
      <point x="112" y="710" type="line"/>
      <point x="486" y="0" type="line"/>
      <point x="548" y="0" type="line"/>
      <point x="172" y="710" type="line"/>
    </contour>
    <contour>
      <point x="15" y="0" type="line"/>
      <point x="75" y="0" type="line"/>
      <point x="322" y="332" type="line"/>
      <point x="299" y="375" type="line"/>
    </contour>
    <contour>
      <point x="325" y="391" type="line"/>
      <point x="349" y="352" type="line"/>
      <point x="621" y="710" type="line"/>
      <point x="561" y="710" type="line"/>
    </contour>
  </outline>
</glyph>
<glyph name="Y" format="2">
  <advance width="661"/>
  <unicode hex="0059"/>
  <anchor x="310" y="0" name="bottom"/>
  <anchor x="397" y="710" name="top"/>
  <anchor x="103" y="710" name="topleft"/>
  <outline>
    <contour>
      <point x="312" y="253" type="line"/>
      <point x="281" y="0" type="line"/>
      <point x="331" y="0" type="line"/>
      <point x="362" y="253" type="line"/>
      <point x="684" y="710" type="line"/>
      <point x="623" y="710" type="line"/>
      <point x="334" y="293" type="line"/>
      <point x="351" y="294" type="line"/>
      <point x="162" y="710" type="line"/>
      <point x="104" y="710" type="line"/>
    </contour>
  </outline>
</glyph>
<glyph name="Z" format="2">
  <advance width="641"/>
  <unicode hex="005A"/>
  <anchor x="298" y="0" name="bottom"/>
  <anchor x="398" y="710" name="top"/>
  <outline>
    <contour>
      <point x="11" y="0" type="line"/>
      <point x="600" y="0" type="line"/>
      <point x="606" y="47" type="line"/>
      <point x="92" y="47" type="line"/>
      <point x="97" y="39" type="line"/>
      <point x="663" y="710" type="line"/>
      <point x="205" y="710" type="line"/>
      <point x="183" y="710"/>
      <point x="176" y="719"/>
      <point x="177" y="733" type="curve" smooth="yes"/>
      <point x="179" y="745" type="line"/>
      <point x="132" y="745" type="line"/>
      <point x="128" y="714" type="line" smooth="yes"/>
      <point x="123" y="676"/>
      <point x="150" y="663"/>
      <point x="188" y="663" type="curve" smooth="yes"/>
      <point x="588" y="663" type="line"/>
      <point x="579" y="676" type="line"/>
    </contour>
  </outline>
</glyph>
<glyph name="bracketleft" format="2">
  <advance width="352"/>
  <unicode hex="005B"/>
  <outline>
    <contour>
      <point x="182" y="750" type="line"/>
      <point x="71" y="-150" type="line"/>
      <point x="248" y="-150" type="line"/>
      <point x="253" y="-107" type="line"/>
      <point x="121" y="-107" type="line"/>
      <point x="221" y="707" type="line"/>
      <point x="353" y="707" type="line"/>
      <point x="358" y="750" type="line"/>
    </contour>
  </outline>
</glyph>
<glyph name="backslash" format="2">
  <advance width="349"/>
  <unicode hex="005C"/>
  <outline>
    <contour>
      <point x="148" y="740" type="curve"/>
      <point x="100" y="740" type="line"/>
      <point x="163" y="487"/>
      <point x="224" y="234"/>
      <point x="286" y="-19" type="curve"/>
      <point x="334" y="-19" type="line"/>
      <point x="272" y="234"/>
      <point x="211" y="487"/>
    </contour>
  </outline>
</glyph>
<glyph name="bracketright" format="2">
  <advance width="385"/>
  <unicode hex="005D"/>
  <outline>
    <contour>
      <point x="162" y="750" type="line"/>
      <point x="157" y="707" type="line"/>
      <point x="288" y="707" type="line"/>
      <point x="189" y="-107" type="line"/>
      <point x="57" y="-107" type="line"/>
      <point x="51" y="-150" type="line"/>
      <point x="228" y="-150" type="line"/>
      <point x="338" y="750" type="line"/>
    </contour>
  </outline>
</glyph>
<glyph name="asciicircum" format="2">
  <advance width="472"/>
  <unicode hex="005E"/>
  <outline>
    <contour>
      <point x="379" y="482" type="curve"/>
      <point x="413" y="482" type="line"/>
      <point x="380" y="542"/>
      <point x="348" y="603"/>
      <point x="315" y="663" type="curve"/>
      <point x="315" y="663" type="line"/>
      <point x="267" y="603"/>
      <point x="219" y="542"/>
      <point x="172" y="482" type="curve"/>
      <point x="206" y="482" type="line"/>
      <point x="236" y="519"/>
      <point x="278" y="569"/>
      <point x="308" y="607" type="curve"/>
      <point x="329" y="569"/>
      <point x="358" y="519"/>
    </contour>
  </outline>
</glyph>
<glyph name="a" format="2">
  <advance width="561"/>
  <unicode hex="0061"/>
  <anchor x="238" y="-5" name="bottom"/>
  <anchor x="449" y="3" name="ogonek"/>
  <anchor x="288" y="400" name="top"/>
  <outline>
    <contour>
      <point x="232" y="-6" type="curve" smooth="yes"/>
      <point x="324" y="-7"/>
      <point x="394" y="47"/>
      <point x="422" y="96" type="curve"/>
      <point x="415" y="114" type="line"/>
      <point x="401" y="0" type="line"/>
      <point x="448" y="0" type="line"/>
      <point x="495" y="391" type="line"/>
      <point x="454" y="391" type="line"/>
      <point x="433" y="272" type="line"/>
      <point x="442" y="286" type="line"/>
      <point x="419" y="353"/>
      <point x="357" y="403"/>
      <point x="266" y="403" type="curve" smooth="yes"/>
      <point x="115" y="403"/>
      <point x="50" y="275"/>
      <point x="50" y="183" type="curve" smooth="yes"/>
      <point x="50" y="73"/>
      <point x="131" y="-7"/>
    </contour>
    <contour>
      <point x="255" y="33" type="curve" smooth="yes"/>
      <point x="164" y="33"/>
      <point x="99" y="101"/>
      <point x="99" y="188" type="curve" smooth="yes"/>
      <point x="99" y="252"/>
      <point x="144" y="363"/>
      <point x="272" y="363" type="curve" smooth="yes"/>
      <point x="356" y="363"/>
      <point x="422" y="303"/>
      <point x="428" y="226" type="curve"/>
      <point x="422" y="169" type="line"/>
      <point x="406" y="88"/>
      <point x="335" y="33"/>
    </contour>
  </outline>
</glyph>
<glyph name="c" format="2">
  <advance width="436"/>
  <unicode hex="0063"/>
  <anchor x="191" y="0" name="bottom"/>
  <anchor x="244" y="395" name="top"/>
  <outline>
    <contour>
      <point x="372" y="28" type="curve"/>
      <point x="350" y="60" type="line"/>
      <point x="322" y="42"/>
      <point x="290" y="31"/>
      <point x="254" y="31" type="curve" smooth="yes"/>
      <point x="162" y="31"/>
      <point x="98" y="99"/>
      <point x="98" y="183" type="curve" smooth="yes"/>
      <point x="98" y="281"/>
      <point x="178" y="358"/>
      <point x="269" y="358" type="curve" smooth="yes"/>
      <point x="316" y="358"/>
      <point x="357" y="338"/>
      <point x="383" y="312" type="curve"/>
      <point x="412" y="343" type="line"/>
      <point x="378" y="377"/>
      <point x="328" y="398"/>
      <point x="266" y="398" type="curve" smooth="yes"/>
      <point x="141" y="398"/>
      <point x="50" y="294"/>
      <point x="50" y="181" type="curve" smooth="yes"/>
      <point x="50" y="61"/>
      <point x="149" y="-9"/>
      <point x="247" y="-9" type="curve" smooth="yes"/>
      <point x="292" y="-9"/>
      <point x="336" y="5"/>
    </contour>
  </outline>
</glyph>
<glyph name="d" format="2">
  <advance width="564"/>
  <unicode hex="0064"/>
  <anchor x="253" y="0" name="bottom"/>
  <anchor x="447" y="497" name="center"/>
  <anchor x="287" y="408" name="top"/>
  <anchor x="586" y="667" name="topright"/>
  <outline>
    <contour>
      <point x="233" y="-5" type="curve" smooth="yes"/>
      <point x="311" y="-10"/>
      <point x="383" y="32"/>
      <point x="424" y="94" type="curve"/>
      <point x="416" y="113" type="line"/>
      <point x="402" y="0" type="line"/>
      <point x="449" y="0" type="line"/>
      <point x="544" y="760" type="line"/>
      <point x="496" y="760" type="line"/>
      <point x="436" y="269" type="line"/>
      <point x="451" y="284" type="line"/>
      <point x="427" y="348"/>
      <point x="362" y="399"/>
      <point x="280" y="403" type="curve" smooth="yes"/>
      <point x="157" y="408"/>
      <point x="61" y="319"/>
      <point x="51" y="201" type="curve" smooth="yes"/>
      <point x="41" y="92"/>
      <point x="120" y="-1"/>
    </contour>
    <contour>
      <point x="245" y="35" type="curve" smooth="yes"/>
      <point x="154" y="40"/>
      <point x="91" y="114"/>
      <point x="99" y="206" type="curve" smooth="yes"/>
      <point x="109" y="306"/>
      <point x="188" y="370"/>
      <point x="283" y="364" type="curve" smooth="yes"/>
      <point x="364" y="361"/>
      <point x="424" y="299"/>
      <point x="430" y="224" type="curve"/>
      <point x="424" y="173" type="line"/>
      <point x="407" y="89"/>
      <point x="330" y="30"/>
    </contour>
  </outline>
</glyph>
<glyph name="e" format="2">
  <advance width="488"/>
  <unicode hex="0065"/>
  <anchor x="223" y="-5" name="bottom"/>
  <anchor x="372" y="17" name="ogonek"/>
  <anchor x="267" y="403" name="top"/>
  <outline>
    <contour>
      <point x="252" y="33" type="curve" smooth="yes"/>
      <point x="162" y="33"/>
      <point x="97" y="101"/>
      <point x="97" y="191" type="curve" smooth="yes"/>
      <point x="97" y="285"/>
      <point x="171" y="363"/>
      <point x="268" y="363" type="curve" smooth="yes"/>
      <point x="336" y="363"/>
      <point x="383" y="316"/>
      <point x="401" y="257" type="curve"/>
      <point x="419" y="271" type="line"/>
      <point x="88" y="169" type="line"/>
      <point x="96" y="133" type="line"/>
      <point x="453" y="244" type="line"/>
      <point x="431" y="349"/>
      <point x="363" y="402"/>
      <point x="269" y="402" type="curve" smooth="yes"/>
      <point x="139" y="402"/>
      <point x="50" y="297"/>
      <point x="50" y="186" type="curve" smooth="yes"/>
      <point x="50" y="72"/>
      <point x="131" y="-7"/>
      <point x="248" y="-7" type="curve" smooth="yes"/>
      <point x="294" y="-7"/>
      <point x="341" y="8"/>
      <point x="379" y="34" type="curve"/>
      <point x="359" y="70" type="line"/>
      <point x="329" y="47"/>
      <point x="291" y="33"/>
    </contour>
  </outline>
</glyph>
<glyph name="f" format="2">
  <advance width="324"/>
  <unicode hex="0066"/>
  <anchor x="111" y="0" name="bottom"/>
  <anchor x="266" y="695" name="top"/>
  <outline>
    <contour>
      <point x="91" y="0" type="line"/>
      <point x="138" y="0" type="line"/>
      <point x="180" y="347" type="line"/>
      <point x="311" y="347" type="line"/>
      <point x="316" y="390" type="line"/>
      <point x="185" y="390" type="line"/>
      <point x="210" y="588" type="line" smooth="yes"/>
      <point x="222" y="690"/>
      <point x="255" y="725"/>
      <point x="313" y="725" type="curve" smooth="yes"/>
      <point x="327" y="725"/>
      <point x="338" y="722"/>
      <point x="346" y="715" type="curve"/>
      <point x="371" y="749" type="line"/>
      <point x="353" y="759"/>
      <point x="331" y="764"/>
      <point x="313" y="764" type="curve" smooth="yes"/>
      <point x="228" y="764"/>
      <point x="177" y="712"/>
      <point x="162" y="587" type="curve" smooth="yes"/>
      <point x="138" y="390" type="line"/>
      <point x="71" y="390" type="line"/>
      <point x="66" y="347" type="line"/>
      <point x="133" y="347" type="line"/>
    </contour>
  </outline>
</glyph>
<glyph name="g" format="2">
  <advance width="565"/>
  <unicode hex="0067"/>
  <anchor x="235" y="-131" name="bottom"/>
  <anchor x="304" y="408" name="top"/>
  <outline>
    <contour>
      <point x="237" y="-190" type="curve" smooth="yes"/>
      <point x="372" y="-190"/>
      <point x="438" y="-114"/>
      <point x="449" y="-20" type="curve" smooth="yes"/>
      <point x="500" y="391" type="line"/>
      <point x="459" y="391" type="line"/>
      <point x="435" y="273" type="line"/>
      <point x="446" y="290" type="line"/>
      <point x="425" y="357"/>
      <point x="355" y="402"/>
      <point x="267" y="402" type="curve" smooth="yes"/>
      <point x="110" y="402"/>
      <point x="50" y="265"/>
      <point x="50" y="188" type="curve" smooth="yes"/>
      <point x="50" y="74"/>
      <point x="131" y="-7"/>
      <point x="241" y="-7" type="curve" smooth="yes"/>
      <point x="323" y="-7"/>
      <point x="397" y="36"/>
      <point x="428" y="105" type="curve"/>
      <point x="418" y="114" type="line"/>
      <point x="402" y="-13" type="line"/>
      <point x="391" y="-89"/>
      <point x="347" y="-148"/>
      <point x="240" y="-148" type="curve" smooth="yes"/>
      <point x="187" y="-148"/>
      <point x="134" y="-137"/>
      <point x="76" y="-71" type="curve"/>
      <point x="44" y="-102" type="line"/>
      <point x="107" y="-173"/>
      <point x="165" y="-190"/>
    </contour>
    <contour>
      <point x="98" y="248"/>
      <point x="140" y="363"/>
      <point x="275" y="363" type="curve" smooth="yes"/>
      <point x="360" y="363"/>
      <point x="425" y="303"/>
      <point x="432" y="225" type="curve"/>
      <point x="425" y="167" type="line"/>
      <point x="409" y="92"/>
      <point x="336" y="33"/>
      <point x="254" y="33" type="curve" smooth="yes"/>
      <point x="162" y="33"/>
      <point x="98" y="100"/>
      <point x="98" y="188" type="curve" smooth="yes"/>
    </contour>
  </outline>
</glyph>
<glyph name="k" format="2">
  <advance width="451"/>
  <unicode hex="006B"/>
  <anchor x="203" y="0" name="bottom"/>
  <anchor x="252" y="391" name="top"/>
  <outline>
    <contour>
      <point x="65" y="0" type="line"/>
      <point x="112" y="0" type="line"/>
      <point x="206" y="760" type="line"/>
      <point x="158" y="760" type="line"/>
    </contour>
    <contour>
      <point x="233" y="254" type="line"/>
      <point x="197" y="228" type="line"/>
      <point x="329" y="0" type="line"/>
      <point x="384" y="0" type="line"/>
    </contour>
    <contour>
      <point x="113" y="142" type="line"/>
      <point x="406" y="374" type="line"/>
      <point x="374" y="399" type="line"/>
      <point x="109" y="189" type="line"/>
    </contour>
  </outline>
</glyph>
<glyph name="l" format="2">
  <advance width="226"/>
  <unicode hex="006C"/>
  <anchor x="90" y="0" name="bottom"/>
  <anchor x="114" y="220" name="center"/>
  <anchor x="174" y="757" name="top"/>
  <anchor x="277" y="746" name="topright"/>
  <outline>
    <contour>
      <point x="158" y="760" type="line"/>
      <point x="65" y="0" type="line"/>
      <point x="112" y="0" type="line"/>
      <point x="206" y="760" type="line"/>
    </contour>
  </outline>
</glyph>
<glyph name="m" format="2">
  <advance width="788"/>
  <unicode hex="006D"/>
  <anchor x="386" y="0" name="bottom"/>
  <anchor x="419" y="408" name="top"/>
  <outline>
    <contour>
      <point x="154" y="391" type="line"/>
      <point x="113" y="391" type="line"/>
      <point x="65" y="0" type="line"/>
      <point x="112" y="0" type="line"/>
      <point x="138" y="210" type="line" smooth="yes"/>
      <point x="149" y="293"/>
      <point x="224" y="360"/>
      <point x="307" y="360" type="curve"/>
      <point x="360" y="357"/>
      <point x="384" y="321"/>
      <point x="380" y="275" type="curve"/>
      <point x="346" y="0" type="line"/>
      <point x="394" y="0" type="line"/>
      <point x="420" y="214" type="line"/>
      <point x="433" y="295"/>
      <point x="506" y="360"/>
      <point x="589" y="360" type="curve"/>
      <point x="642" y="357"/>
      <point x="665" y="321"/>
      <point x="661" y="275" type="curve"/>
      <point x="627" y="0" type="line"/>
      <point x="675" y="0" type="line"/>
      <point x="709" y="285" type="line"/>
      <point x="716" y="354"/>
      <point x="675" y="402"/>
      <point x="601" y="402" type="curve" smooth="yes"/>
      <point x="530" y="402"/>
      <point x="465" y="365"/>
      <point x="426" y="308" type="curve"/>
      <point x="430" y="312" type="line"/>
      <point x="425" y="368"/>
      <point x="386" y="402"/>
      <point x="322" y="402" type="curve" smooth="yes"/>
      <point x="246" y="402"/>
      <point x="180" y="363"/>
      <point x="142" y="303" type="curve"/>
      <point x="146" y="286" type="line"/>
    </contour>
  </outline>
</glyph>
<glyph name="r" format="2">
  <advance width="343"/>
  <unicode hex="0072"/>
  <anchor x="106" y="0" name="bottom"/>
  <anchor x="184" y="408" name="top"/>
  <outline>
    <contour>
      <point x="154" y="391" type="line"/>
      <point x="113" y="391" type="line"/>
      <point x="65" y="0" type="line"/>
      <point x="112" y="0" type="line"/>
      <point x="138" y="207" type="line" smooth="yes"/>
      <point x="147" y="291"/>
      <point x="227" y="356"/>
      <point x="317" y="356" type="curve"/>
      <point x="324" y="402" type="line"/>
      <point x="256" y="401"/>
      <point x="178" y="360"/>
      <point x="143" y="287" type="curve"/>
    </contour>
  </outline>
</glyph>
<glyph name="s" format="2">
  <advance width="369"/>
  <unicode hex="0073"/>
  <anchor x="155" y="0" name="bottom"/>
  <anchor x="214" y="408" name="top"/>
  <outline>
    <contour>
      <point x="170" y="-8" type="curve" smooth="yes"/>
      <point x="278" y="-8"/>
      <point x="305" y="70"/>
      <point x="305" y="108" type="curve" smooth="yes"/>
      <point x="305" y="175"/>
      <point x="256" y="198"/>
      <point x="205" y="220" type="curve" smooth="yes"/>
      <point x="165" y="237"/>
      <point x="127" y="253"/>
      <point x="126" y="296" type="curve" smooth="yes"/>
      <point x="126" y="324"/>
      <point x="152" y="360"/>
      <point x="201" y="360" type="curve" smooth="yes"/>
      <point x="231" y="360"/>
      <point x="273" y="352"/>
      <point x="297" y="316" type="curve"/>
      <point x="321" y="348" type="line"/>
      <point x="281" y="395"/>
      <point x="217" y="399"/>
      <point x="201" y="399" type="curve" smooth="yes"/>
      <point x="122" y="400"/>
      <point x="77" y="339"/>
      <point x="77" y="287" type="curve" smooth="yes"/>
      <point x="77" y="236"/>
      <point x="113" y="208"/>
      <point x="163" y="188" type="curve" smooth="yes"/>
      <point x="209" y="169"/>
      <point x="257" y="154"/>
      <point x="257" y="103" type="curve" smooth="yes"/>
      <point x="257" y="72"/>
      <point x="226" y="31"/>
      <point x="170" y="31" type="curve" smooth="yes"/>
      <point x="129" y="31"/>
      <point x="85" y="44"/>
      <point x="57" y="83" type="curve"/>
      <point x="32" y="54" type="line"/>
      <point x="65" y="6"/>
      <point x="125" y="-8"/>
    </contour>
  </outline>
</glyph>
<glyph name="t" format="2">
  <advance width="325"/>
  <unicode hex="0074"/>
  <anchor x="134" y="0" name="bottom"/>
  <anchor x="154" y="191" name="center"/>
  <anchor x="196" y="558" name="top"/>
  <anchor x="295" y="501" name="topright"/>
  <outline>
    <contour>
      <point x="172" y="563" type="line"/>
      <point x="151" y="386" type="line"/>
      <point x="67" y="386" type="line"/>
      <point x="62" y="347" type="line"/>
      <point x="146" y="347" type="line"/>
      <point x="104" y="0" type="line"/>
      <point x="151" y="0" type="line"/>
      <point x="193" y="347" type="line"/>
      <point x="315" y="347" type="line"/>
      <point x="320" y="386" type="line"/>
      <point x="198" y="386" type="line"/>
      <point x="220" y="563" type="line"/>
    </contour>
  </outline>
</glyph>
<glyph name="v" format="2">
  <advance width="455"/>
  <unicode hex="0076"/>
  <anchor x="196" y="0" name="bottom"/>
  <anchor x="246" y="408" name="top"/>
  <outline>
    <contour>
      <point x="200" y="-15" type="line"/>
      <point x="205" y="-15" type="line"/>
      <point x="449" y="391" type="line"/>
      <point x="396" y="391" type="line"/>
      <point x="196" y="43" type="line"/>
      <point x="224" y="42" type="line"/>
      <point x="106" y="391" type="line"/>
      <point x="51" y="391" type="line"/>
    </contour>
  </outline>
</glyph>
<glyph name="x" format="2">
  <advance width="396"/>
  <unicode hex="0078"/>
  <outline>
    <contour>
      <point x="366" y="0" type="line"/>
      <point x="124" y="391" type="line"/>
      <point x="66" y="391" type="line"/>
      <point x="310" y="0" type="line"/>
    </contour>
    <contour>
      <point x="218" y="224" type="line"/>
      <point x="237" y="189" type="line"/>
      <point x="407" y="391" type="line"/>
      <point x="353" y="391" type="line"/>
    </contour>
    <contour>
      <point x="214" y="168" type="line"/>
      <point x="192" y="201" type="line"/>
      <point x="22" y="0" type="line"/>
      <point x="75" y="0" type="line"/>
    </contour>
  </outline>
</glyph>
<glyph name="y" format="2">
  <advance width="449"/>
  <unicode hex="0079"/>
  <anchor x="337" y="-7" name="bottom"/>
  <anchor x="261" y="391" name="top"/>
  <outline>
    <contour>
      <point x="87" y="-188" type="line"/>
      <point x="139" y="-188" type="line"/>
      <point x="462" y="391" type="line"/>
      <point x="412" y="391" type="line"/>
    </contour>
    <contour>
      <point x="200" y="-4" type="line"/>
      <point x="240" y="21" type="line"/>
      <point x="117" y="391" type="line"/>
      <point x="64" y="391" type="line"/>
    </contour>
  </outline>
</glyph>
<glyph name="z" format="2">
  <advance width="404"/>
  <unicode hex="007A"/>
  <anchor x="152" y="0" name="bottom"/>
  <anchor x="201" y="391" name="top"/>
  <outline>
    <contour>
      <point x="125" y="351" type="curve" smooth="yes"/>
      <point x="321" y="351" type="line"/>
      <point x="313" y="366" type="line"/>
      <point x="12" y="0" type="line"/>
      <point x="334" y="0" type="line"/>
      <point x="339" y="40" type="line"/>
      <point x="76" y="40" type="line"/>
      <point x="87" y="30" type="line"/>
      <point x="386" y="391" type="line"/>
      <point x="133" y="391" type="line" smooth="yes"/>
      <point x="110" y="391"/>
      <point x="103" y="400"/>
      <point x="104" y="416" type="curve" smooth="yes"/>
      <point x="104" y="428" type="line"/>
      <point x="67" y="428" type="line"/>
      <point x="65" y="409" type="line" smooth="yes"/>
      <point x="61" y="366"/>
      <point x="82" y="351"/>
    </contour>
  </outline>
</glyph>
<glyph name="braceleft" format="2">
  <advance width="302"/>
  <unicode hex="007B"/>
  <outline>
    <contour>
      <point x="287" y="707" type="curve" smooth="yes"/>
      <point x="339" y="707" type="line"/>
      <point x="344" y="750" type="line"/>
      <point x="296" y="750" type="line" smooth="yes"/>
      <point x="244" y="750"/>
      <point x="197" y="754"/>
      <point x="181" y="631" type="curve" smooth="yes"/>
      <point x="160" y="460" type="line" smooth="yes"/>
      <point x="153" y="405"/>
      <point x="130" y="327"/>
      <point x="64" y="324" type="curve"/>
      <point x="58" y="275" type="line"/>
      <point x="58" y="275" type="line"/>
      <point x="123" y="272"/>
      <point x="128" y="194"/>
      <point x="121" y="140" type="curve" smooth="yes"/>
      <point x="103" y="-10" type="line" smooth="yes"/>
      <point x="85" y="-154"/>
      <point x="128" y="-149"/>
      <point x="185" y="-149" type="curve" smooth="yes"/>
      <point x="234" y="-149" type="line"/>
      <point x="239" y="-107" type="line"/>
      <point x="187" y="-107" type="line" smooth="yes"/>
      <point x="146" y="-107"/>
      <point x="137" y="-81"/>
      <point x="148" y="2" type="curve" smooth="yes"/>
      <point x="165" y="144" type="line" smooth="yes"/>
      <point x="178" y="249"/>
      <point x="147" y="282"/>
      <point x="119" y="300" type="curve"/>
      <point x="152" y="319"/>
      <point x="191" y="350"/>
      <point x="204" y="457" type="curve" smooth="yes"/>
      <point x="221" y="599" type="line" smooth="yes"/>
      <point x="231" y="682"/>
      <point x="246" y="707"/>
    </contour>
  </outline>
</glyph>
<glyph name="braceright" format="2">
  <advance width="335"/>
  <unicode hex="007D"/>
  <outline>
    <contour>
      <point x="110" y="-107" type="curve" smooth="yes"/>
      <point x="58" y="-107" type="line"/>
      <point x="53" y="-149" type="line"/>
      <point x="101" y="-149" type="line" smooth="yes"/>
      <point x="153" y="-149"/>
      <point x="200" y="-155"/>
      <point x="215" y="-31" type="curve" smooth="yes"/>
      <point x="233" y="119" type="line" smooth="yes"/>
      <point x="240" y="168"/>
      <point x="256" y="272"/>
      <point x="332" y="275" type="curve"/>
      <point x="338" y="324" type="line"/>
      <point x="338" y="324" type="line"/>
      <point x="263" y="327"/>
      <point x="272" y="431"/>
      <point x="278" y="480" type="curve" smooth="yes"/>
      <point x="296" y="631" type="line" smooth="yes"/>
      <point x="312" y="755"/>
      <point x="263" y="750"/>
      <point x="211" y="750" type="curve" smooth="yes"/>
      <point x="163" y="750" type="line"/>
      <point x="158" y="707" type="line"/>
      <point x="210" y="707" type="line" smooth="yes"/>
      <point x="251" y="707"/>
      <point x="259" y="682"/>
      <point x="248" y="599" type="curve" smooth="yes"/>
      <point x="231" y="457" type="line" smooth="yes"/>
      <point x="218" y="350"/>
      <point x="249" y="319"/>
      <point x="278" y="300" type="curve"/>
      <point x="251" y="285"/>
      <point x="206" y="252"/>
      <point x="195" y="166" type="curve" smooth="yes"/>
      <point x="175" y="2" type="line" smooth="yes"/>
      <point x="165" y="-81"/>
      <point x="151" y="-107"/>
    </contour>
  </outline>
</glyph>
<glyph name="asciitilde" format="2">
  <advance width="479"/>
  <unicode hex="007E"/>
  <outline>
    <contour>
      <point x="279" y="445" type="curve"/>
      <point x="326" y="442"/>
      <point x="368" y="483"/>
      <point x="376" y="567" type="curve"/>
      <point x="344" y="570" type="line"/>
      <point x="334" y="503"/>
      <point x="310" y="480"/>
      <point x="282" y="482" type="curve"/>
      <point x="256" y="483"/>
      <point x="240" y="504"/>
      <point x="224" y="525" type="curve"/>
      <point x="206" y="550"/>
      <point x="187" y="576"/>
      <point x="148" y="578" type="curve"/>
      <point x="99" y="581"/>
      <point x="54" y="537"/>
      <point x="44" y="456" type="curve"/>
      <point x="76" y="452" type="line"/>
      <point x="87" y="519"/>
      <point x="117" y="541"/>
      <point x="142" y="540" type="curve"/>
      <point x="168" y="538"/>
      <point x="182" y="518"/>
      <point x="197" y="498" type="curve"/>
      <point x="217" y="473"/>
      <point x="237" y="447"/>
    </contour>
  </outline>
</glyph>
<glyph name="exclamdown" format="2">
  <advance width="200"/>
  <unicode hex="00A1"/>
  <outline>
    <contour>
      <point x="88" y="-185" type="line"/>
      <point x="159" y="394" type="line"/>
      <point x="116" y="394" type="line"/>
      <point x="45" y="-185" type="line"/>
    </contour>
    <contour>
      <point x="166" y="533" type="curve" smooth="yes"/>
      <point x="154" y="540"/>
      <point x="141" y="541"/>
      <point x="130" y="529" type="curve" smooth="yes"/>
      <point x="120" y="518"/>
      <point x="119" y="502"/>
      <point x="131" y="492" type="curve" smooth="yes"/>
      <point x="144" y="484"/>
      <point x="160" y="486"/>
      <point x="169" y="497" type="curve" smooth="yes"/>
      <point x="179" y="509"/>
      <point x="179" y="524"/>
    </contour>
  </outline>
</glyph>
<glyph name="cent" format="2">
  <advance width="436"/>
  <unicode hex="00A2"/>
  <outline>
    <contour>
      <point x="270" y="456" type="line"/>
      <point x="206" y="-68" type="line"/>
      <point x="239" y="-68" type="line"/>
      <point x="303" y="456" type="line"/>
    </contour>
    <component base="c"/>
  </outline>
</glyph>
<glyph name="sterling" format="2">
  <advance width="570"/>
  <unicode hex="00A3"/>
  <outline>
    <contour>
      <point x="331" y="350" type="line"/>
      <point x="84" y="350" type="line"/>
      <point x="78" y="302" type="line"/>
      <point x="325" y="302" type="line"/>
    </contour>
    <contour>
      <point x="169" y="516" type="curve" smooth="yes"/>
      <point x="128" y="177" type="line" smooth="yes"/>
      <point x="115" y="74"/>
      <point x="105" y="47"/>
      <point x="60" y="47" type="curve" smooth="yes"/>
      <point x="15" y="47" type="line"/>
      <point x="9" y="0" type="line"/>
      <point x="372" y="0" type="line" smooth="yes"/>
      <point x="487" y="0"/>
      <point x="502" y="46"/>
      <point x="509" y="98" type="curve" smooth="yes"/>
      <point x="514" y="147" type="line"/>
      <point x="471" y="147" type="line"/>
      <point x="464" y="96" type="line" smooth="yes"/>
      <point x="460" y="59"/>
      <point x="431" y="47"/>
      <point x="365" y="47" type="curve" smooth="yes"/>
      <point x="131" y="47" type="line"/>
      <point x="138" y="47" type="line"/>
      <point x="160" y="66"/>
      <point x="169" y="120"/>
      <point x="172" y="138" type="curve" smooth="yes"/>
      <point x="174" y="161" type="line"/>
      <point x="217" y="504" type="line" smooth="yes"/>
      <point x="224" y="566"/>
      <point x="262" y="614"/>
      <point x="362" y="614" type="curve" smooth="yes"/>
      <point x="444" y="614"/>
      <point x="467" y="587"/>
      <point x="488" y="543" type="curve"/>
      <point x="526" y="567" type="line"/>
      <point x="504" y="624"/>
      <point x="459" y="661"/>
      <point x="367" y="661" type="curve" smooth="yes"/>
      <point x="260" y="661"/>
      <point x="181" y="610"/>
    </contour>
  </outline>
</glyph>
<glyph name="yen" format="2">
  <advance width="661"/>
  <unicode hex="00A5"/>
  <outline>
    <contour>
      <point x="160" y="287" type="line"/>
      <point x="156" y="247" type="line"/>
      <point x="502" y="247" type="line"/>
      <point x="506" y="287" type="line"/>
    </contour>
    <contour>
      <point x="156" y="131" type="line"/>
      <point x="152" y="90" type="line"/>
      <point x="497" y="90" type="line"/>
      <point x="501" y="131" type="line"/>
    </contour>
    <contour>
      <point x="316" y="285" type="line"/>
      <point x="281" y="0" type="line"/>
      <point x="331" y="0" type="line"/>
      <point x="366" y="285" type="line"/>
      <point x="684" y="710" type="line"/>
      <point x="623" y="710" type="line"/>
      <point x="338" y="324" type="line"/>
      <point x="355" y="326" type="line"/>
      <point x="162" y="710" type="line"/>
      <point x="104" y="710" type="line"/>
    </contour>
  </outline>
</glyph>
<glyph name="section" format="2">
  <advance width="565"/>
  <unicode hex="00A7"/>
  <outline>
    <contour>
      <point x="349" y="130" type="line"/>
      <point x="446" y="142"/>
      <point x="515" y="201"/>
      <point x="525" y="281" type="curve" smooth="yes"/>
      <point x="539" y="390"/>
      <point x="444" y="429"/>
      <point x="354" y="458" type="curve" smooth="yes"/>
      <point x="262" y="488"/>
      <point x="194" y="515"/>
      <point x="203" y="589" type="curve" smooth="yes"/>
      <point x="209" y="641"/>
      <point x="271" y="688"/>
      <point x="365" y="683" type="curve" smooth="yes"/>
      <point x="420" y="679"/>
      <point x="476" y="657"/>
      <point x="513" y="631" type="curve"/>
      <point x="539" y="667" type="line"/>
      <point x="494" y="697"/>
      <point x="423" y="721"/>
      <point x="365" y="725" type="curve" smooth="yes"/>
      <point x="246" y="733"/>
      <point x="162" y="663"/>
      <point x="152" y="588" type="curve" smooth="yes"/>
      <point x="143" y="506"/>
      <point x="199" y="459"/>
      <point x="282" y="429" type="curve"/>
      <point x="288" y="445" type="line"/>
      <point x="194" y="452"/>
      <point x="100" y="397"/>
      <point x="89" y="302" type="curve" smooth="yes"/>
      <point x="76" y="196"/>
      <point x="172" y="159"/>
      <point x="261" y="127" type="curve"/>
      <point x="343" y="102"/>
      <point x="419" y="74"/>
      <point x="409" y="-2" type="curve" smooth="yes"/>
      <point x="401" y="-78"/>
      <point x="312" y="-117"/>
      <point x="227" y="-112" type="curve" smooth="yes"/>
      <point x="156" y="-108"/>
      <point x="88" y="-69"/>
      <point x="46" y="-32" type="curve"/>
      <point x="17" y="-70" type="line"/>
      <point x="50" y="-99"/>
      <point x="123" y="-150"/>
      <point x="226" y="-156" type="curve" smooth="yes"/>
      <point x="348" y="-164"/>
      <point x="449" y="-95"/>
      <point x="461" y="-1" type="curve" smooth="yes"/>
      <point x="471" y="84"/>
      <point x="411" y="128"/>
      <point x="336" y="148" type="curve"/>
    </contour>
    <contour>
      <point x="476" y="277" type="curve" smooth="yes"/>
      <point x="466" y="200"/>
      <point x="376" y="161"/>
      <point x="312" y="159" type="curve"/>
      <point x="202" y="197"/>
      <point x="127" y="225"/>
      <point x="138" y="309" type="curve" smooth="yes"/>
      <point x="147" y="377"/>
      <point x="218" y="425"/>
      <point x="321" y="418" type="curve"/>
      <point x="407" y="391"/>
      <point x="487" y="355"/>
    </contour>
  </outline>
</glyph>
<glyph name="ordfeminine" format="2">
  <advance width="410"/>
  <unicode hex="00AA"/>
  <outline>
    <contour>
      <point x="207" y="417" type="curve"/>
      <point x="268" y="417"/>
      <point x="319" y="456"/>
      <point x="340" y="496" type="curve"/>
      <point x="338" y="508" type="line"/>
      <point x="327" y="422" type="line"/>
      <point x="365" y="422" type="line"/>
      <point x="399" y="705" type="line"/>
      <point x="365" y="705" type="line"/>
      <point x="354" y="637" type="line"/>
      <point x="339" y="682"/>
      <point x="299" y="712"/>
      <point x="242" y="712" type="curve"/>
      <point x="167" y="712"/>
      <point x="95" y="657"/>
      <point x="84" y="564" type="curve"/>
      <point x="74" y="476"/>
      <point x="129" y="417"/>
    </contour>
    <contour>
      <point x="220" y="449" type="curve"/>
      <point x="158" y="449"/>
      <point x="115" y="500"/>
      <point x="123" y="565" type="curve"/>
      <point x="132" y="635"/>
      <point x="186" y="680"/>
      <point x="248" y="680" type="curve"/>
      <point x="303" y="680"/>
      <point x="343" y="640"/>
      <point x="348" y="589" type="curve"/>
      <point x="343" y="552" type="line"/>
      <point x="333" y="492"/>
      <point x="280" y="449"/>
    </contour>
  </outline>
</glyph>
<glyph name="logicalnot" format="2">
  <advance width="535"/>
  <unicode hex="00AC"/>
  <outline>
    <contour>
      <point x="113" y="264" type="line"/>
      <point x="106" y="217" type="line"/>
      <point x="419" y="217" type="line"/>
      <point x="409" y="133" type="line"/>
      <point x="458" y="133" type="line"/>
      <point x="474" y="264" type="line"/>
    </contour>
  </outline>
</glyph>
<glyph name="registered" format="2">
  <advance width="406"/>
  <unicode hex="00AE"/>
  <outline>
    <contour>
      <point x="225" y="376" type="curve"/>
      <point x="318" y="371"/>
      <point x="400" y="436"/>
      <point x="411" y="531" type="curve"/>
      <point x="423" y="627"/>
      <point x="358" y="700"/>
      <point x="265" y="706" type="curve"/>
      <point x="173" y="711"/>
      <point x="91" y="647"/>
      <point x="80" y="551" type="curve"/>
      <point x="68" y="456"/>
      <point x="133" y="382"/>
    </contour>
    <contour>
      <point x="228" y="406" type="curve"/>
      <point x="155" y="410"/>
      <point x="102" y="472"/>
      <point x="112" y="549" type="curve"/>
      <point x="121" y="627"/>
      <point x="187" y="681"/>
      <point x="262" y="677" type="curve"/>
      <point x="336" y="672"/>
      <point x="389" y="611"/>
      <point x="379" y="533" type="curve"/>
      <point x="370" y="456"/>
      <point x="304" y="401"/>
    </contour>
    <contour>
      <point x="198" y="640" type="line"/>
      <point x="175" y="457" type="line"/>
      <point x="205" y="457" type="line"/>
      <point x="213" y="525" type="line"/>
      <point x="246" y="524" type="line"/>
      <point x="288" y="522"/>
      <point x="308" y="544"/>
      <point x="311" y="577" type="curve"/>
      <point x="317" y="616"/>
      <point x="291" y="637"/>
      <point x="258" y="637" type="curve"/>
    </contour>
    <contour>
      <point x="240" y="548" type="curve"/>
      <point x="218" y="549" type="line"/>
      <point x="226" y="613" type="line"/>
      <point x="251" y="611" type="line"/>
      <point x="267" y="610"/>
      <point x="283" y="600"/>
      <point x="281" y="578" type="curve"/>
      <point x="278" y="559"/>
      <point x="266" y="547"/>
    </contour>
    <contour>
      <point x="271" y="529" type="line"/>
      <point x="240" y="530" type="line"/>
      <point x="268" y="454" type="line"/>
      <point x="301" y="453" type="line"/>
    </contour>
  </outline>
</glyph>
<glyph name="macron" format="2">
  <advance width="401"/>
  <unicode hex="00AF"/>
  <outline>
    <contour>
      <point x="149" y="519" type="line"/>
      <point x="145" y="489" type="line"/>
      <point x="377" y="489" type="line"/>
      <point x="380" y="519" type="line"/>
    </contour>
  </outline>
</glyph>
<glyph name="degree" format="2">
  <advance width="283"/>
  <unicode hex="00B0"/>
  <outline>
    <contour>
      <point x="101" y="558" type="curve" smooth="yes"/>
      <point x="101" y="558" type="line" smooth="yes"/>
      <point x="99" y="513"/>
      <point x="131" y="477"/>
      <point x="178" y="476" type="curve" smooth="yes"/>
      <point x="229" y="475"/>
      <point x="274" y="515"/>
      <point x="276" y="567" type="curve" smooth="yes"/>
      <point x="278" y="613"/>
      <point x="246" y="648"/>
      <point x="200" y="650" type="curve" smooth="yes"/>
      <point x="147" y="651"/>
      <point x="103" y="611"/>
    </contour>
    <contour>
      <point x="182" y="506" type="curve"/>
      <point x="182" y="506" type="line"/>
      <point x="153" y="506"/>
      <point x="131" y="529"/>
      <point x="132" y="559" type="curve" smooth="yes"/>
      <point x="132" y="593"/>
      <point x="162" y="620"/>
      <point x="196" y="619" type="curve" smooth="yes"/>
      <point x="225" y="619"/>
      <point x="247" y="596"/>
      <point x="246" y="566" type="curve" smooth="yes"/>
      <point x="245" y="532"/>
      <point x="216" y="506"/>
    </contour>
  </outline>
</glyph>
<glyph name="plusminus" format="2">
  <advance width="527"/>
  <unicode hex="00B1"/>
  <outline>
    <contour>
      <point x="316" y="574" type="line"/>
      <point x="296" y="415" type="line"/>
      <point x="137" y="415" type="line"/>
      <point x="133" y="372" type="line"/>
      <point x="292" y="372" type="line"/>
      <point x="272" y="212" type="line"/>
      <point x="315" y="212" type="line"/>
      <point x="336" y="372" type="line"/>
      <point x="495" y="372" type="line"/>
      <point x="499" y="415" type="line"/>
      <point x="340" y="415" type="line"/>
      <point x="360" y="574" type="line"/>
    </contour>
    <contour>
      <point x="106" y="159" type="line"/>
      <point x="101" y="116" type="line"/>
      <point x="463" y="116" type="line"/>
      <point x="468" y="159" type="line"/>
    </contour>
  </outline>
</glyph>
<glyph name="threesuperior" format="2">
  <advance width="404"/>
  <unicode hex="00B3"/>
  <outline>
    <contour>
      <point x="185" y="345" type="curve" smooth="yes"/>
      <point x="258" y="345"/>
      <point x="312" y="395"/>
      <point x="321" y="464" type="curve" smooth="yes"/>
      <point x="328" y="526"/>
      <point x="280" y="567"/>
      <point x="230" y="565" type="curve"/>
      <point x="206" y="565"/>
      <point x="183" y="557"/>
      <point x="168" y="546" type="curve"/>
      <point x="200" y="541" type="line"/>
      <point x="325" y="695" type="line"/>
      <point x="141" y="695" type="line"/>
      <point x="136" y="659" type="line"/>
      <point x="279" y="659" type="line"/>
      <point x="267" y="671" type="line"/>
      <point x="148" y="531" type="line"/>
      <point x="150" y="526" type="line"/>
      <point x="167" y="532"/>
      <point x="182" y="538"/>
      <point x="210" y="538" type="curve" smooth="yes"/>
      <point x="251" y="538"/>
      <point x="283" y="513"/>
      <point x="277" y="465" type="curve" smooth="yes"/>
      <point x="271" y="417"/>
      <point x="235" y="380"/>
      <point x="185" y="379" type="curve" smooth="yes"/>
      <point x="148" y="377"/>
      <point x="124" y="400"/>
      <point x="112" y="416" type="curve"/>
      <point x="93" y="388" type="line"/>
      <point x="109" y="368"/>
      <point x="138" y="345"/>
    </contour>
  </outline>
</glyph>
<glyph name="micro" format="2">
  <advance width="509"/>
  <unicode hex="00B5"/>
  <outline>
    <contour>
      <point x="187" y="-11" type="curve" smooth="yes"/>
      <point x="262" y="-11"/>
      <point x="335" y="38"/>
      <point x="363" y="99" type="curve"/>
      <point x="354" y="0" type="line"/>
      <point x="396" y="0" type="line"/>
      <point x="444" y="391" type="line"/>
      <point x="397" y="391" type="line"/>
      <point x="371" y="183" type="line" smooth="yes"/>
      <point x="361" y="95"/>
      <point x="284" y="30"/>
      <point x="207" y="30" type="curve"/>
      <point x="148" y="33"/>
      <point x="123" y="69"/>
      <point x="127" y="120" type="curve"/>
      <point x="160" y="391" type="line"/>
      <point x="113" y="391" type="line"/>
      <point x="79" y="109" type="line"/>
      <point x="41" y="-201" type="line"/>
      <point x="82" y="-201" type="line"/>
      <point x="119" y="103" type="line"/>
      <point x="80" y="78" type="line"/>
      <point x="86" y="25"/>
      <point x="125" y="-11"/>
    </contour>
  </outline>
</glyph>
<glyph name="paragraph" format="2">
  <advance width="516"/>
  <unicode hex="00B6"/>
  <outline>
    <contour>
      <point x="254" y="425" type="curve"/>
      <point x="202" y="0" type="line"/>
      <point x="245" y="0" type="line"/>
      <point x="333" y="712" type="line"/>
      <point x="454" y="712" type="line"/>
      <point x="366" y="0" type="line"/>
      <point x="409" y="0" type="line"/>
      <point x="502" y="754" type="line"/>
      <point x="295" y="754" type="line" smooth="yes"/>
      <point x="196" y="754"/>
      <point x="110" y="672"/>
      <point x="110" y="572" type="curve" smooth="yes"/>
      <point x="110" y="490"/>
      <point x="170" y="425"/>
    </contour>
  </outline>
</glyph>
<glyph name="cedilla" format="2">
  <advance width="454"/>
  <unicode hex="00B8"/>
  <outline>
    <contour>
      <point x="124" y="-165" type="curve"/>
      <point x="105" y="-188" type="line"/>
      <point x="122" y="-207"/>
      <point x="153" y="-223"/>
      <point x="195" y="-225" type="curve"/>
      <point x="260" y="-229"/>
      <point x="317" y="-205"/>
      <point x="324" y="-148" type="curve"/>
      <point x="330" y="-94"/>
      <point x="293" y="-61"/>
      <point x="226" y="-58" type="curve"/>
      <point x="199" y="-56"/>
      <point x="167" y="-62"/>
      <point x="151" y="-69" type="curve"/>
      <point x="167" y="-82" type="line"/>
      <point x="245" y="-2" type="line"/>
      <point x="209" y="4" type="line"/>
      <point x="130" y="-68" type="line"/>
      <point x="142" y="-95" type="line"/>
      <point x="159" y="-88"/>
      <point x="191" y="-84"/>
      <point x="213" y="-85" type="curve"/>
      <point x="266" y="-88"/>
      <point x="286" y="-114"/>
      <point x="282" y="-146" type="curve"/>
      <point x="277" y="-181"/>
      <point x="241" y="-198"/>
      <point x="194" y="-196" type="curve"/>
      <point x="161" y="-194"/>
      <point x="137" y="-181"/>
    </contour>
  </outline>
</glyph>
<glyph name="onesuperior" format="2">
  <advance width="259"/>
  <unicode hex="00B9"/>
  <outline>
    <contour>
      <point x="122" y="658" type="line"/>
      <point x="118" y="615" type="line"/>
      <point x="168" y="615" type="line"/>
      <point x="133" y="328" type="line"/>
      <point x="179" y="328" type="line"/>
      <point x="218" y="658" type="line"/>
    </contour>
  </outline>
</glyph>
<glyph name="questiondown" format="2">
  <advance width="419"/>
  <unicode hex="00BF"/>
  <outline>
    <contour>
      <point x="292" y="277" type="curve" smooth="yes"/>
      <point x="304" y="374" type="line"/>
      <point x="260" y="374" type="line"/>
      <point x="250" y="296" type="line" smooth="yes"/>
      <point x="240" y="215"/>
      <point x="192" y="203"/>
      <point x="142" y="170" type="curve" smooth="yes"/>
      <point x="68" y="120"/>
      <point x="22" y="61"/>
      <point x="22" y="-21" type="curve" smooth="yes"/>
      <point x="22" y="-118"/>
      <point x="93" y="-197"/>
      <point x="196" y="-197" type="curve" smooth="yes"/>
      <point x="303" y="-197"/>
      <point x="374" y="-124"/>
      <point x="405" y="-55" type="curve"/>
      <point x="394" y="-50"/>
      <point x="381" y="-46"/>
      <point x="369" y="-42" type="curve"/>
      <point x="369" y="-42" type="line"/>
      <point x="339" y="-111"/>
      <point x="279" y="-154"/>
      <point x="201" y="-154" type="curve" smooth="yes"/>
      <point x="121" y="-154"/>
      <point x="66" y="-97"/>
      <point x="66" y="-18" type="curve" smooth="yes"/>
      <point x="66" y="37"/>
      <point x="92" y="86"/>
      <point x="147" y="129" type="curve" smooth="yes"/>
      <point x="217" y="182"/>
      <point x="281" y="193"/>
    </contour>
    <contour>
      <point x="301" y="524" type="curve" smooth="yes"/>
      <point x="301" y="524" type="line" smooth="yes"/>
      <point x="283" y="524"/>
      <point x="263" y="509"/>
      <point x="263" y="487" type="curve" smooth="yes"/>
      <point x="263" y="470"/>
      <point x="278" y="457"/>
      <point x="293" y="457" type="curve" smooth="yes"/>
      <point x="310" y="457"/>
      <point x="330" y="473"/>
      <point x="330" y="494" type="curve" smooth="yes"/>
      <point x="330" y="512"/>
      <point x="316" y="524"/>
    </contour>
  </outline>
</glyph>
<glyph name="AE" format="2">
  <advance width="934"/>
  <unicode hex="00C6"/>
  <anchor x="434" y="0" name="bottom"/>
  <anchor x="669" y="710" name="top"/>
  <outline>
    <contour>
      <point x="531" y="710" type="line"/>
      <point x="444" y="0" type="line"/>
      <point x="836" y="0" type="line"/>
      <point x="842" y="47" type="line"/>
      <point x="499" y="47" type="line"/>
      <point x="534" y="333" type="line"/>
      <point x="823" y="333" type="line"/>
      <point x="829" y="380" type="line"/>
      <point x="539" y="380" type="line"/>
      <point x="574" y="662" type="line"/>
      <point x="903" y="662" type="line"/>
      <point x="909" y="710" type="line"/>
    </contour>
    <contour>
      <point x="539" y="664" type="curve"/>
      <point x="531" y="710" type="line"/>
      <point x="-4" y="0" type="line"/>
      <point x="51" y="0" type="line"/>
      <point x="526" y="635" type="line"/>
      <point x="529" y="641"/>
      <point x="535" y="654"/>
    </contour>
    <contour>
      <point x="195" y="236" type="line"/>
      <point x="179" y="196" type="line"/>
      <point x="479" y="196" type="line"/>
      <point x="484" y="236" type="line"/>
    </contour>
  </outline>
</glyph>
<glyph name="multiply" format="2">
  <advance width="507"/>
  <unicode hex="00D7"/>
  <outline>
    <contour>
      <point x="291" y="184" type="curve"/>
      <point x="193" y="295" type="line"/>
      <point x="153" y="258" type="line"/>
      <point x="250" y="147" type="line"/>
      <point x="208" y="110"/>
      <point x="167" y="73"/>
      <point x="126" y="36" type="curve"/>
      <point x="136" y="24"/>
      <point x="147" y="12"/>
      <point x="157" y="1" type="curve"/>
      <point x="198" y="37"/>
      <point x="240" y="74"/>
      <point x="281" y="111" type="curve"/>
      <point x="314" y="74"/>
      <point x="347" y="37"/>
      <point x="379" y="0" type="curve"/>
      <point x="420" y="36" type="line"/>
      <point x="387" y="74"/>
      <point x="355" y="111"/>
      <point x="322" y="148" type="curve"/>
      <point x="363" y="185"/>
      <point x="405" y="222"/>
      <point x="446" y="258" type="curve"/>
      <point x="436" y="270"/>
      <point x="426" y="283"/>
      <point x="416" y="294" type="curve"/>
      <point x="373" y="257"/>
      <point x="333" y="221"/>
    </contour>
  </outline>
</glyph>
<glyph name="Oslash" format="2">
  <advance width="842"/>
  <unicode hex="00D8"/>
  <anchor x="397" y="0" name="bottom"/>
  <anchor x="484" y="710" name="top"/>
  <anchor x="457" y="350" name="center"/>
  <anchor x="519" y="3" name="ogonek"/>
  <anchor x="72" y="700" name="topleft"/>
  <anchor x="718" y="595" name="topright"/>
  <outline>
    <contour>
      <point x="814" y="699" type="line"/>
      <point x="792" y="722" type="line"/>
      <point x="110" y="16" type="line"/>
      <point x="132" y="-6" type="line"/>
    </contour>
    <component base="O"/>
  </outline>
</glyph>
<glyph name="germandbls" format="2">
  <advance width="570"/>
  <unicode hex="00DF"/>
  <outline>
    <contour>
      <point x="303" y="-5" type="curve" smooth="yes"/>
      <point x="411" y="-6"/>
      <point x="502" y="71"/>
      <point x="516" y="187" type="curve" smooth="yes"/>
      <point x="528" y="288"/>
      <point x="477" y="362"/>
      <point x="399" y="391" type="curve"/>
      <point x="493" y="422"/>
      <point x="499" y="480"/>
      <point x="499" y="525" type="curve" smooth="yes"/>
      <point x="499" y="593"/>
      <point x="460" y="658"/>
      <point x="352" y="663" type="curve"/>
      <point x="236" y="666"/>
      <point x="164" y="590"/>
      <point x="147" y="457" type="curve" smooth="yes"/>
      <point x="139" y="399" type="line"/>
      <point x="74" y="399" type="line"/>
      <point x="67" y="359" type="line"/>
      <point x="132" y="359" type="line"/>
      <point x="82" y="0" type="line"/>
      <point x="130" y="0" type="line"/>
      <point x="189" y="427" type="line" smooth="yes"/>
      <point x="205" y="545"/>
      <point x="252" y="627"/>
      <point x="347" y="623" type="curve" smooth="yes"/>
      <point x="421" y="619"/>
      <point x="451" y="571"/>
      <point x="451" y="517" type="curve" smooth="yes"/>
      <point x="451" y="486"/>
      <point x="423" y="407"/>
      <point x="331" y="413" type="curve"/>
      <point x="326" y="370" type="line"/>
      <point x="330" y="370" type="line"/>
      <point x="422" y="364"/>
      <point x="480" y="287"/>
      <point x="469" y="192" type="curve" smooth="yes"/>
      <point x="459" y="105"/>
      <point x="388" y="33"/>
      <point x="304" y="33" type="curve" smooth="yes"/>
      <point x="285" y="33"/>
      <point x="241" y="36"/>
      <point x="207" y="63" type="curve"/>
      <point x="185" y="34" type="line"/>
      <point x="218" y="6"/>
      <point x="262" y="-5"/>
    </contour>
  </outline>
</glyph>
<glyph name="ccedilla" format="2">
  <advance width="403"/>
  <unicode hex="00E7"/>
  <outline>
    <contour>
      <point x="355" y="68" type="curve"/>
      <point x="355" y="68" type="line"/>
      <point x="324" y="46"/>
      <point x="287" y="33"/>
      <point x="247" y="33" type="curve" smooth="yes"/>
      <point x="162" y="33"/>
      <point x="102" y="97"/>
      <point x="102" y="180" type="curve" smooth="yes"/>
      <point x="102" y="279"/>
      <point x="187" y="360"/>
      <point x="288" y="360" type="curve" smooth="yes"/>
      <point x="327" y="360"/>
      <point x="361" y="347"/>
      <point x="386" y="324" type="curve"/>
      <point x="396" y="335"/>
      <point x="407" y="345"/>
      <point x="417" y="355" type="curve"/>
      <point x="385" y="383"/>
      <point x="342" y="400"/>
      <point x="292" y="400" type="curve" smooth="yes"/>
      <point x="170" y="400"/>
      <point x="61" y="298"/>
      <point x="61" y="175" type="curve" smooth="yes"/>
      <point x="61" y="73"/>
      <point x="137" y="-8"/>
      <point x="242" y="-8" type="curve" smooth="yes"/>
      <point x="292" y="-8"/>
      <point x="338" y="9"/>
      <point x="377" y="38" type="curve"/>
      <point x="369" y="48"/>
      <point x="363" y="58"/>
    </contour>
    <contour>
      <point x="242" y="-7" type="curve" smooth="yes"/>
      <point x="243" y="0" type="line"/>
      <point x="213" y="0" type="line"/>
      <point x="210" y="-18" type="line" smooth="yes"/>
      <point x="204" y="-74"/>
      <point x="274" y="-70"/>
      <point x="274" y="-128" type="curve" smooth="yes"/>
      <point x="274" y="-169"/>
      <point x="245" y="-201"/>
      <point x="204" y="-201" type="curve" smooth="yes"/>
      <point x="174" y="-201"/>
      <point x="153" y="-183"/>
      <point x="150" y="-158" type="curve"/>
      <point x="140" y="-161"/>
      <point x="129" y="-166"/>
      <point x="119" y="-170" type="curve"/>
      <point x="129" y="-214"/>
      <point x="163" y="-236"/>
      <point x="203" y="-236" type="curve" smooth="yes"/>
      <point x="263" y="-236"/>
      <point x="309" y="-191"/>
      <point x="309" y="-125" type="curve" smooth="yes"/>
      <point x="309" y="-104"/>
      <point x="300" y="-79"/>
      <point x="277" y="-61" type="curve" smooth="yes"/>
      <point x="261" y="-49"/>
      <point x="237" y="-43"/>
    </contour>
  </outline>
</glyph>
<glyph name="divide" format="2">
  <advance width="503"/>
  <unicode hex="00F7"/>
  <outline>
    <contour>
      <point x="230" y="94" type="curve" smooth="yes"/>
      <point x="230" y="94" type="line" smooth="yes"/>
      <point x="230" y="76"/>
      <point x="244" y="63"/>
      <point x="261" y="63" type="curve" smooth="yes"/>
      <point x="279" y="63"/>
      <point x="298" y="79"/>
      <point x="298" y="100" type="curve" smooth="yes"/>
      <point x="298" y="118"/>
      <point x="284" y="131"/>
      <point x="269" y="131" type="curve" smooth="yes"/>
      <point x="250" y="131"/>
      <point x="230" y="115"/>
    </contour>
    <contour>
      <point x="263" y="361" type="curve" smooth="yes"/>
      <point x="263" y="361" type="line" smooth="yes"/>
      <point x="263" y="343"/>
      <point x="277" y="331"/>
      <point x="293" y="331" type="curve" smooth="yes"/>
      <point x="312" y="331"/>
      <point x="331" y="346"/>
      <point x="331" y="368" type="curve" smooth="yes"/>
      <point x="331" y="385"/>
      <point x="317" y="398"/>
      <point x="302" y="398" type="curve" smooth="yes"/>
      <point x="283" y="398"/>
      <point x="263" y="382"/>
    </contour>
    <contour>
      <point x="100" y="252" type="line"/>
      <point x="94" y="209" type="line"/>
      <point x="456" y="209" type="line"/>
      <point x="462" y="252" type="line"/>
    </contour>
  </outline>
</glyph>
<glyph name="oslash" format="2">
  <advance width="489"/>
  <unicode hex="00F8"/>
  <outline>
    <contour>
      <point x="458" y="382" type="curve"/>
      <point x="438" y="401" type="line"/>
      <point x="366" y="327"/>
      <point x="128" y="85"/>
      <point x="57" y="11" type="curve"/>
      <point x="76" y="-10" type="line"/>
      <point x="147" y="65"/>
      <point x="386" y="307"/>
    </contour>
    <component base="o"/>
  </outline>
</glyph>
<glyph name="Hbar" format="2">
  <advance width="912"/>
  <unicode hex="0126"/>
  <outline>
    <contour>
      <point x="155" y="532" type="line"/>
      <point x="151" y="502" type="line"/>
      <point x="834" y="502" type="line"/>
      <point x="838" y="532" type="line"/>
    </contour>
    <component base="H" xOffset="74"/>
  </outline>
</glyph>
<glyph name="Iogonek" format="2">
  <advance width="274"/>
  <unicode hex="012E"/>
  <outline>
    <contour>
      <point x="82" y="-197" type="curve"/>
      <point x="119" y="-198"/>
      <point x="155" y="-172"/>
      <point x="174" y="-140" type="curve"/>
      <point x="155" y="-116" type="line"/>
      <point x="138" y="-143"/>
      <point x="116" y="-161"/>
      <point x="90" y="-161" type="curve"/>
      <point x="63" y="-160"/>
      <point x="38" y="-140"/>
      <point x="39" y="-104" type="curve"/>
      <point x="40" y="-65"/>
      <point x="78" y="-31"/>
      <point x="139" y="0" type="curve"/>
      <point x="226" y="710" type="line"/>
      <point x="176" y="710" type="line"/>
      <point x="89" y="0" type="line"/>
      <point x="97" y="17" type="line"/>
      <point x="38" y="-10"/>
      <point x="-3" y="-62"/>
      <point x="-3" y="-110" type="curve"/>
      <point x="-3" y="-161"/>
      <point x="36" y="-195"/>
    </contour>
  </outline>
</glyph>
<glyph name="iogonek" format="2">
  <advance width="201"/>
  <unicode hex="012F"/>
  <outline>
    <contour>
      <point x="66" y="-197" type="curve"/>
      <point x="102" y="-198"/>
      <point x="138" y="-172"/>
      <point x="157" y="-140" type="curve"/>
      <point x="138" y="-116" type="line"/>
      <point x="121" y="-143"/>
      <point x="99" y="-161"/>
      <point x="73" y="-161" type="curve"/>
      <point x="46" y="-160"/>
      <point x="21" y="-140"/>
      <point x="22" y="-104" type="curve"/>
      <point x="23" y="-65"/>
      <point x="58" y="-31"/>
      <point x="118" y="1" type="curve"/>
      <point x="165" y="391" type="line"/>
      <point x="118" y="391" type="line"/>
      <point x="70" y="0" type="line"/>
      <point x="108" y="5" type="line"/>
      <point x="79" y="14" type="line"/>
      <point x="20" y="-13"/>
      <point x="-20" y="-63"/>
      <point x="-20" y="-110" type="curve"/>
      <point x="-20" y="-161"/>
      <point x="19" y="-195"/>
    </contour>
    <component base="dotaccentcomb" xOffset="-6" yOffset="-11"/>
  </outline>
</glyph>
<glyph name="idotless" format="2">
  <advance width="225"/>
  <unicode hex="0131"/>
  <anchor x="84" y="0" name="bottom"/>
  <anchor x="98" y="10" name="ogonek"/>
  <anchor x="138" y="391" name="top"/>
  <outline>
    <contour>
      <point x="113" y="391" type="line"/>
      <point x="65" y="0" type="line"/>
      <point x="112" y="0" type="line"/>
      <point x="160" y="391" type="line"/>
    </contour>
  </outline>
</glyph>
<glyph name="kgreenlandic" format="2">
  <advance width="452"/>
  <unicode hex="0138"/>
  <outline>
    <contour>
      <point x="122" y="135" type="line"/>
      <point x="420" y="391" type="line"/>
      <point x="360" y="391" type="line"/>
      <point x="119" y="178" type="line"/>
    </contour>
    <contour>
      <point x="112" y="0" type="line"/>
      <point x="160" y="391" type="line"/>
      <point x="113" y="391" type="line"/>
      <point x="65" y="0" type="line"/>
    </contour>
    <contour>
      <point x="205" y="221" type="line"/>
      <point x="169" y="197" type="line"/>
      <point x="322" y="0" type="line"/>
      <point x="378" y="0" type="line"/>
    </contour>
  </outline>
</glyph>
<glyph name="Lslash" format="2">
  <advance width="574"/>
  <unicode hex="0141"/>
  <outline>
    <contour>
      <point x="417" y="425" type="line"/>
      <point x="59" y="307" type="line"/>
      <point x="53" y="265" type="line"/>
      <point x="411" y="383" type="line"/>
    </contour>
    <component base="L"/>
  </outline>
</glyph>
<glyph name="lslash" format="2">
  <advance width="212"/>
  <unicode hex="0142"/>
  <outline>
    <contour>
      <point x="245" y="366" type="line"/>
      <point x="52" y="307" type="line"/>
      <point x="46" y="265" type="line"/>
      <point x="240" y="324" type="line"/>
    </contour>
    <component base="l" xOffset="3"/>
  </outline>
</glyph>
<glyph name="Eng" format="2">
  <advance width="809"/>
  <unicode hex="014A"/>
  <anchor x="385" y="0" name="bottom"/>
  <anchor x="465" y="700" name="top"/>
  <outline>
    <contour>
      <point x="581" y="-188" type="line"/>
      <point x="637" y="-152"/>
      <point x="668" y="-88"/>
      <point x="678" y="-5" type="curve" smooth="yes"/>
      <point x="765" y="710" type="line"/>
      <point x="716" y="710" type="line"/>
      <point x="640" y="85" type="line"/>
      <point x="656" y="80" type="line"/>
      <point x="174" y="725" type="line"/>
      <point x="172" y="725" type="line"/>
      <point x="83" y="0" type="line"/>
      <point x="132" y="0" type="line"/>
      <point x="207" y="624" type="line"/>
      <point x="193" y="623" type="line"/>
      <point x="669" y="-8" type="line"/>
      <point x="637" y="52" type="line"/>
      <point x="631" y="-6" type="line" smooth="yes"/>
      <point x="625" y="-72"/>
      <point x="599" y="-127"/>
      <point x="555" y="-159" type="curve"/>
    </contour>
  </outline>
</glyph>
<glyph name="eng" format="2">
  <advance width="512"/>
  <unicode hex="014B"/>
  <outline>
    <contour>
      <point x="398" y="-3" type="curve" smooth="yes"/>
      <point x="434" y="285" type="line" smooth="yes"/>
      <point x="442" y="355"/>
      <point x="398" y="402"/>
      <point x="320" y="402" type="curve" smooth="yes"/>
      <point x="242" y="402"/>
      <point x="179" y="361"/>
      <point x="146" y="301" type="curve"/>
      <point x="149" y="290" type="line"/>
      <point x="154" y="391" type="line"/>
      <point x="113" y="391" type="line"/>
      <point x="65" y="0" type="line"/>
      <point x="112" y="0" type="line"/>
      <point x="138" y="209" type="line" smooth="yes"/>
      <point x="148" y="297"/>
      <point x="219" y="360"/>
      <point x="301" y="360" type="curve" smooth="yes"/>
      <point x="360" y="360"/>
      <point x="391" y="324"/>
      <point x="385" y="273" type="curve" smooth="yes"/>
      <point x="351" y="-6" type="line" smooth="yes"/>
      <point x="343" y="-72"/>
      <point x="319" y="-127"/>
      <point x="275" y="-159" type="curve"/>
      <point x="302" y="-188" type="line"/>
      <point x="357" y="-152"/>
      <point x="389" y="-86"/>
    </contour>
  </outline>
</glyph>
<glyph name="OE" format="2">
  <advance width="997"/>
  <unicode hex="0152"/>
  <outline>
    <contour>
      <point x="578" y="662" type="curve"/>
      <point x="607" y="705" type="line"/>
      <point x="579" y="713"/>
      <point x="549" y="718"/>
      <point x="517" y="718" type="curve" smooth="yes"/>
      <point x="302" y="718"/>
      <point x="108" y="534"/>
      <point x="108" y="317" type="curve" smooth="yes"/>
      <point x="108" y="136"/>
      <point x="243" y="-8"/>
      <point x="428" y="-8" type="curve" smooth="yes"/>
      <point x="459" y="-8"/>
      <point x="489" y="-4"/>
      <point x="519" y="3" type="curve"/>
      <point x="504" y="48" type="line"/>
      <point x="480" y="42"/>
      <point x="457" y="40"/>
      <point x="433" y="40" type="curve" smooth="yes"/>
      <point x="275" y="40"/>
      <point x="158" y="164"/>
      <point x="158" y="321" type="curve" smooth="yes"/>
      <point x="158" y="509"/>
      <point x="326" y="669"/>
      <point x="511" y="669" type="curve" smooth="yes"/>
      <point x="535" y="669"/>
      <point x="557" y="666"/>
    </contour>
    <contour>
      <point x="578" y="710" type="line"/>
      <point x="491" y="0" type="line"/>
      <point x="913" y="0" type="line"/>
      <point x="919" y="47" type="line"/>
      <point x="547" y="47" type="line"/>
      <point x="582" y="334" type="line"/>
      <point x="900" y="334" type="line"/>
      <point x="906" y="380" type="line"/>
      <point x="587" y="380" type="line"/>
      <point x="622" y="664" type="line"/>
      <point x="980" y="664" type="line"/>
      <point x="986" y="710" type="line"/>
    </contour>
  </outline>
</glyph>
<glyph name="oe" format="2">
  <advance width="729"/>
  <unicode hex="0153"/>
  <anchor x="334" y="0" name="bottom"/>
  <anchor x="382" y="391" name="top"/>
  <outline>
    <contour>
      <point x="247" y="-9" type="curve" smooth="yes"/>
      <point x="292" y="-9"/>
      <point x="336" y="5"/>
      <point x="372" y="28" type="curve"/>
      <point x="350" y="60" type="line"/>
      <point x="322" y="42"/>
      <point x="290" y="31"/>
      <point x="254" y="31" type="curve" smooth="yes"/>
      <point x="162" y="31"/>
      <point x="98" y="99"/>
      <point x="98" y="183" type="curve" smooth="yes"/>
      <point x="98" y="281"/>
      <point x="178" y="358"/>
      <point x="269" y="358" type="curve" smooth="yes"/>
      <point x="310" y="358"/>
      <point x="345" y="342"/>
      <point x="371" y="322" type="curve"/>
      <point x="402" y="352" type="line"/>
      <point x="369" y="380"/>
      <point x="323" y="398"/>
      <point x="266" y="398" type="curve" smooth="yes"/>
      <point x="141" y="398"/>
      <point x="50" y="294"/>
      <point x="50" y="181" type="curve" smooth="yes"/>
      <point x="50" y="61"/>
      <point x="149" y="-9"/>
    </contour>
    <component base="e" xOffset="241"/>
  </outline>
</glyph>
<glyph name="uring" format="2">
  <advance width="490"/>
  <unicode hex="016F"/>
  <outline>
    <contour>
      <point x="238" y="490" type="curve" smooth="yes"/>
      <point x="238" y="490" type="line" smooth="yes"/>
      <point x="238" y="454"/>
      <point x="265" y="426"/>
      <point x="301" y="426" type="curve" smooth="yes"/>
      <point x="344" y="426"/>
      <point x="382" y="462"/>
      <point x="382" y="505" type="curve" smooth="yes"/>
      <point x="382" y="541"/>
      <point x="355" y="569"/>
      <point x="319" y="569" type="curve" smooth="yes"/>
      <point x="276" y="569"/>
      <point x="238" y="533"/>
    </contour>
    <contour>
      <point x="266" y="493" type="curve" smooth="yes"/>
      <point x="266" y="493" type="line" smooth="yes"/>
      <point x="266" y="519"/>
      <point x="290" y="541"/>
      <point x="316" y="541" type="curve" smooth="yes"/>
      <point x="338" y="541"/>
      <point x="354" y="523"/>
      <point x="354" y="501" type="curve" smooth="yes"/>
      <point x="354" y="475"/>
      <point x="330" y="453"/>
      <point x="305" y="453" type="curve" smooth="yes"/>
      <point x="283" y="453"/>
      <point x="266" y="472"/>
    </contour>
    <component base="u"/>
  </outline>
</glyph>
<glyph name="Uogonek" format="2">
  <advance width="716"/>
  <unicode hex="0172"/>
  <anchor x="445" y="10" name="_ogonek"/>
  <anchor x="333" y="0" name="bottom"/>
  <anchor x="445" y="10" name="ogonek"/>
  <anchor x="421" y="708" name="top"/>
  <anchor x="733" y="681" name="topright"/>
  <outline>
    <contour>
      <point x="332" y="-8" type="curve" smooth="yes"/>
      <point x="380" y="-8"/>
      <point x="402" y="-2"/>
      <point x="435" y="10" type="curve"/>
      <point x="412" y="24" type="line"/>
      <point x="353" y="-5"/>
      <point x="310" y="-52"/>
      <point x="310" y="-106" type="curve"/>
      <point x="310" y="-157"/>
      <point x="345" y="-195"/>
      <point x="395" y="-195" type="curve"/>
      <point x="432" y="-195"/>
      <point x="468" y="-170"/>
      <point x="487" y="-138" type="curve"/>
      <point x="468" y="-114" type="line"/>
      <point x="451" y="-141"/>
      <point x="429" y="-160"/>
      <point x="403" y="-159" type="curve"/>
      <point x="376" y="-159"/>
      <point x="352" y="-135"/>
      <point x="352" y="-102" type="curve"/>
      <point x="352" y="-61"/>
      <point x="384" y="-12"/>
      <point x="442" y="10" type="curve" smooth="yes"/>
      <point x="527" y="44"/>
      <point x="592" y="122"/>
      <point x="607" y="237" type="curve" smooth="yes"/>
      <point x="664" y="710" type="line"/>
      <point x="614" y="710" type="line"/>
      <point x="557" y="240" type="line" smooth="yes"/>
      <point x="542" y="116"/>
      <point x="459" y="39"/>
      <point x="338" y="39" type="curve" smooth="yes"/>
      <point x="225" y="39"/>
      <point x="153" y="116"/>
      <point x="169" y="240" type="curve" smooth="yes"/>
      <point x="226" y="710" type="line"/>
      <point x="176" y="710" type="line"/>
      <point x="118" y="237" type="line" smooth="yes"/>
      <point x="99" y="83"/>
      <point x="192" y="-8"/>
    </contour>
  </outline>
</glyph>
<glyph name="uogonek" format="2">
  <advance width="509"/>
  <unicode hex="0173"/>
  <outline>
    <contour>
      <point x="349" y="-202" type="curve"/>
      <point x="385" y="-203"/>
      <point x="422" y="-177"/>
      <point x="441" y="-146" type="curve"/>
      <point x="422" y="-122" type="line"/>
      <point x="405" y="-148"/>
      <point x="383" y="-167"/>
      <point x="356" y="-166" type="curve"/>
      <point x="330" y="-166"/>
      <point x="304" y="-146"/>
      <point x="306" y="-109" type="curve"/>
      <point x="306" y="-69"/>
      <point x="339" y="-33"/>
      <point x="395" y="0" type="curve"/>
      <point x="443" y="391" type="line"/>
      <point x="396" y="391" type="line"/>
      <point x="370" y="183" type="line" smooth="yes"/>
      <point x="360" y="95"/>
      <point x="283" y="30"/>
      <point x="206" y="30" type="curve"/>
      <point x="148" y="33"/>
      <point x="120" y="69"/>
      <point x="125" y="115" type="curve" smooth="yes"/>
      <point x="159" y="391" type="line"/>
      <point x="112" y="391" type="line"/>
      <point x="77" y="103" type="line" smooth="yes"/>
      <point x="69" y="34"/>
      <point x="114" y="-11"/>
      <point x="186" y="-11" type="curve" smooth="yes"/>
      <point x="261" y="-11"/>
      <point x="334" y="38"/>
      <point x="362" y="99" type="curve"/>
      <point x="353" y="0" type="line"/>
      <point x="394" y="2" type="line"/>
      <point x="363" y="15" type="line"/>
      <point x="304" y="-14"/>
      <point x="264" y="-63"/>
      <point x="264" y="-115" type="curve"/>
      <point x="264" y="-166"/>
      <point x="303" y="-201"/>
    </contour>
  </outline>
</glyph>
<glyph name="Schwa" format="2">
  <advance width="810"/>
  <unicode hex="018F"/>
  <outline>
    <contour>
      <point x="425" y="718" type="curve" smooth="yes"/>
      <point x="340" y="719"/>
      <point x="243" y="684"/>
      <point x="177" y="630" type="curve"/>
      <point x="199" y="590" type="line"/>
      <point x="255" y="637"/>
      <point x="342" y="671"/>
      <point x="420" y="670" type="curve" smooth="yes"/>
      <point x="520" y="669"/>
      <point x="710" y="595"/>
      <point x="710" y="376" type="curve" smooth="yes"/>
      <point x="710" y="259"/>
      <point x="611" y="37"/>
      <point x="375" y="40" type="curve" smooth="yes"/>
      <point x="302" y="41"/>
      <point x="167" y="81"/>
      <point x="120" y="251" type="curve"/>
      <point x="102" y="234" type="line"/>
      <point x="722" y="430" type="line"/>
      <point x="715" y="468" type="line"/>
      <point x="64" y="266" type="line"/>
      <point x="109" y="30"/>
      <point x="291" y="-4"/>
      <point x="373" y="-4" type="curve" smooth="yes"/>
      <point x="652" y="-4"/>
      <point x="761" y="242"/>
      <point x="761" y="383" type="curve" smooth="yes"/>
      <point x="761" y="626"/>
      <point x="559" y="715"/>
    </contour>
  </outline>
</glyph>
<glyph name="Nhookleft" format="2">
  <advance width="768"/>
  <unicode hex="019D"/>
  <outline>
    <contour>
      <point x="625" y="-17" type="line"/>
      <point x="628" y="-8" type="line"/>
      <point x="716" y="710" type="line"/>
      <point x="669" y="710" type="line"/>
      <point x="593" y="85" type="line"/>
      <point x="608" y="89" type="line"/>
      <point x="125" y="725" type="line"/>
      <point x="123" y="725" type="line"/>
      <point x="34" y="0" type="line"/>
      <point x="81" y="0" type="line"/>
      <point x="157" y="624" type="line"/>
      <point x="144" y="616" type="line"/>
    </contour>
    <contour>
      <point x="88" y="54" type="line"/>
      <point x="45" y="89" type="line"/>
      <point x="33" y="-6" type="line" smooth="yes"/>
      <point x="25" y="-72"/>
      <point x="-3" y="-124"/>
      <point x="-42" y="-159" type="curve"/>
      <point x="-14" y="-188" type="line"/>
      <point x="39" y="-148"/>
      <point x="70" y="-86"/>
      <point x="80" y="-5" type="curve" smooth="yes"/>
    </contour>
  </outline>
</glyph>
<glyph name="ohorn" format="2">
  <advance width="530"/>
  <unicode hex="01A1"/>
  <anchor x="232" y="0" name="bottom"/>
  <anchor x="249" y="204" name="center"/>
  <anchor x="306" y="-1" name="ogonek"/>
  <anchor x="271" y="395" name="top"/>
  <anchor x="358" y="330" name="topright"/>
  <outline>
    <contour>
      <point x="248" y="-8" type="curve" smooth="yes"/>
      <point x="406" y="-8"/>
      <point x="468" y="117"/>
      <point x="468" y="212" type="curve" smooth="yes"/>
      <point x="468" y="325"/>
      <point x="379" y="402"/>
      <point x="270" y="402" type="curve" smooth="yes"/>
      <point x="116" y="402"/>
      <point x="50" y="283"/>
      <point x="50" y="183" type="curve" smooth="yes"/>
      <point x="50" y="66"/>
      <point x="143" y="-8"/>
    </contour>
    <contour>
      <point x="250" y="32" type="curve" smooth="yes"/>
      <point x="167" y="32"/>
      <point x="98" y="94"/>
      <point x="98" y="185" type="curve" smooth="yes"/>
      <point x="98" y="269"/>
      <point x="151" y="362"/>
      <point x="268" y="362" type="curve" smooth="yes"/>
      <point x="349" y="362"/>
      <point x="420" y="302"/>
      <point x="420" y="209" type="curve" smooth="yes"/>
      <point x="420" y="126"/>
      <point x="368" y="32"/>
    </contour>
    <contour>
      <point x="417" y="327" type="curve"/>
      <point x="413" y="295" type="line"/>
      <point x="465" y="291"/>
      <point x="508" y="306"/>
      <point x="523" y="405" type="curve"/>
      <point x="486" y="406" type="line"/>
      <point x="477" y="343"/>
      <point x="454" y="323"/>
    </contour>
  </outline>
</glyph>
<glyph name="Oogonek" format="2">
  <advance width="865"/>
  <unicode hex="01EA"/>
  <anchor x="519" y="3" name="_ogonek"/>
  <anchor x="426" y="0" name="bottom"/>
  <anchor x="457" y="350" name="center"/>
  <anchor x="519" y="3" name="ogonek"/>
  <anchor x="489" y="708" name="top"/>
  <anchor x="72" y="700" name="topleft"/>
  <anchor x="718" y="595" name="topright"/>
  <outline>
    <contour>
      <point x="520" y="7" type="curve"/>
      <point x="483" y="12" type="line"/>
      <point x="424" y="-15"/>
      <point x="384" y="-67"/>
      <point x="384" y="-115" type="curve"/>
      <point x="384" y="-167"/>
      <point x="423" y="-201"/>
      <point x="469" y="-202" type="curve"/>
      <point x="506" y="-203"/>
      <point x="542" y="-178"/>
      <point x="561" y="-146" type="curve"/>
      <point x="542" y="-122" type="line"/>
      <point x="525" y="-148"/>
      <point x="503" y="-167"/>
      <point x="476" y="-167" type="curve"/>
      <point x="450" y="-166"/>
      <point x="425" y="-145"/>
      <point x="426" y="-108" type="curve"/>
      <point x="427" y="-66"/>
      <point x="460" y="-28"/>
      <point x="518" y="5" type="curve"/>
      <point x="711" y="46"/>
      <point x="815" y="229"/>
      <point x="815" y="381" type="curve" smooth="yes"/>
      <point x="815" y="587"/>
      <point x="659" y="717"/>
      <point x="474" y="717" type="curve" smooth="yes"/>
      <point x="222" y="717"/>
      <point x="88" y="504"/>
      <point x="88" y="328" type="curve" smooth="yes"/>
      <point x="88" y="123"/>
      <point x="244" y="-7"/>
      <point x="429" y="-7" type="curve" smooth="yes"/>
      <point x="464" y="-7"/>
      <point x="492" y="-2"/>
    </contour>
    <contour>
      <point x="430" y="40" type="curve" smooth="yes"/>
      <point x="261" y="40"/>
      <point x="138" y="173"/>
      <point x="138" y="330" type="curve" smooth="yes"/>
      <point x="138" y="484"/>
      <point x="254" y="670"/>
      <point x="472" y="670" type="curve" smooth="yes"/>
      <point x="640" y="670"/>
      <point x="765" y="536"/>
      <point x="765" y="379" type="curve" smooth="yes"/>
      <point x="765" y="226"/>
      <point x="648" y="40"/>
    </contour>
  </outline>
</glyph>
<glyph name="jdotless" format="2">
  <advance width="236"/>
  <unicode hex="0237"/>
  <anchor x="94" y="0" name="bottom"/>
  <anchor x="142" y="391" name="top"/>
  <outline>
    <contour>
      <point x="-27" y="-169" type="curve"/>
      <point x="-5" y="-199" type="line"/>
      <point x="70" y="-167"/>
      <point x="111" y="-96"/>
      <point x="123" y="0" type="curve"/>
      <point x="171" y="391" type="line"/>
      <point x="124" y="391" type="line"/>
      <point x="72" y="-18" type="line"/>
      <point x="61" y="-88"/>
      <point x="29" y="-136"/>
    </contour>
  </outline>
</glyph>
<glyph name="breve" format="2">
  <advance width="489"/>
  <unicode hex="02D8"/>
  <outline>
    <contour>
      <point x="303" y="493" type="curve" smooth="yes"/>
      <point x="380" y="491"/>
      <point x="435" y="558"/>
      <point x="451" y="660" type="curve"/>
      <point x="416" y="660" type="line"/>
      <point x="403" y="587"/>
      <point x="365" y="527"/>
      <point x="306" y="528" type="curve" smooth="yes"/>
      <point x="277" y="529"/>
      <point x="211" y="554"/>
      <point x="218" y="660" type="curve"/>
      <point x="184" y="660" type="line"/>
      <point x="175" y="525"/>
      <point x="260" y="494"/>
    </contour>
  </outline>
</glyph>
<glyph name="ring" format="2">
  <advance width="397"/>
  <unicode hex="02DA"/>
  <outline>
    <contour>
      <point x="190" y="493" type="curve" smooth="yes"/>
      <point x="188" y="451"/>
      <point x="218" y="422"/>
      <point x="261" y="421" type="curve" smooth="yes"/>
      <point x="305" y="420"/>
      <point x="341" y="449"/>
      <point x="343" y="497" type="curve" smooth="yes"/>
      <point x="345" y="538"/>
      <point x="315" y="567"/>
      <point x="272" y="569" type="curve" smooth="yes"/>
      <point x="228" y="570"/>
      <point x="192" y="541"/>
    </contour>
    <contour>
      <point x="220" y="493" type="curve" smooth="yes"/>
      <point x="221" y="524"/>
      <point x="245" y="542"/>
      <point x="271" y="541" type="curve" smooth="yes"/>
      <point x="296" y="541"/>
      <point x="314" y="522"/>
      <point x="313" y="495" type="curve" smooth="yes"/>
      <point x="312" y="466"/>
      <point x="289" y="447"/>
      <point x="263" y="447" type="curve" smooth="yes"/>
      <point x="238" y="448"/>
      <point x="220" y="467"/>
    </contour>
  </outline>
</glyph>
<glyph name="ogonek" format="2">
  <advance width="366"/>
  <unicode hex="02DB"/>
  <outline>
    <contour>
      <point x="152" y="-198" type="curve"/>
      <point x="189" y="-199"/>
      <point x="225" y="-173"/>
      <point x="244" y="-141" type="curve"/>
      <point x="225" y="-117" type="line"/>
      <point x="208" y="-144"/>
      <point x="186" y="-163"/>
      <point x="160" y="-162" type="curve"/>
      <point x="133" y="-162"/>
      <point x="108" y="-142"/>
      <point x="109" y="-105" type="curve"/>
      <point x="110" y="-67"/>
      <point x="148" y="-33"/>
      <point x="213" y="-2" type="curve"/>
      <point x="166" y="12" type="line"/>
      <point x="107" y="-14"/>
      <point x="67" y="-64"/>
      <point x="67" y="-111" type="curve"/>
      <point x="67" y="-162"/>
      <point x="106" y="-197"/>
    </contour>
  </outline>
</glyph>
<glyph name="hungarumlaut" format="2">
  <advance width="466"/>
  <unicode hex="02DD"/>
  <outline>
    <contour>
      <point x="298" y="615" type="curve"/>
      <point x="253" y="615" type="line"/>
      <point x="218" y="571"/>
      <point x="182" y="526"/>
      <point x="147" y="482" type="curve"/>
      <point x="181" y="482" type="line"/>
      <point x="220" y="526"/>
      <point x="260" y="571"/>
    </contour>
    <contour>
      <point x="436" y="615" type="curve"/>
      <point x="392" y="615" type="line"/>
      <point x="356" y="571"/>
      <point x="320" y="526"/>
      <point x="285" y="482" type="curve"/>
      <point x="319" y="482" type="line"/>
      <point x="358" y="526"/>
      <point x="398" y="571"/>
    </contour>
  </outline>
</glyph>
<glyph name="hookabovecomb" format="2">
  <unicode hex="0309"/>
  <anchor x="145" y="486" name="_top"/>
  <anchor x="165" y="692" name="top"/>
  <outline>
    <contour>
      <point x="136" y="552" type="curve"/>
      <point x="148" y="536" type="line"/>
      <point x="195" y="564"/>
      <point x="223" y="589"/>
      <point x="226" y="624" type="curve" smooth="yes"/>
      <point x="231" y="669"/>
      <point x="205" y="691"/>
      <point x="169" y="692" type="curve" smooth="yes"/>
      <point x="137" y="694"/>
      <point x="110" y="679"/>
      <point x="85" y="646" type="curve"/>
      <point x="104" y="632" type="line"/>
      <point x="124" y="655"/>
      <point x="138" y="664"/>
      <point x="161" y="663" type="curve" smooth="yes"/>
      <point x="190" y="662"/>
      <point x="199" y="642"/>
      <point x="196" y="616" type="curve"/>
      <point x="192" y="590"/>
      <point x="168" y="575"/>
    </contour>
  </outline>
</glyph>
<glyph name="commaturnedabovecomb" format="2">
  <unicode hex="0312"/>
  <anchor x="115" y="513" name="_top"/>
  <anchor x="158" y="747" name="top"/>
  <outline>
    <contour>
      <point x="171" y="722" type="line"/>
      <point x="114" y="693"/>
      <point x="93" y="630"/>
      <point x="96" y="576" type="curve"/>
      <point x="140" y="575" type="line"/>
      <point x="138" y="630"/>
      <point x="156" y="678"/>
      <point x="194" y="703" type="curve"/>
    </contour>
  </outline>
</glyph>
<glyph name="horncomb" format="2">
  <unicode hex="031B"/>
  <anchor x="142" y="701" name="_topright"/>
  <anchor x="111" y="466" name="topright"/>
  <outline>
    <contour>
      <point x="144" y="714" type="curve"/>
      <point x="140" y="683" type="line"/>
      <point x="216" y="677"/>
      <point x="272" y="695"/>
      <point x="291" y="807" type="curve"/>
      <point x="254" y="807" type="line"/>
      <point x="241" y="731"/>
      <point x="207" y="710"/>
    </contour>
  </outline>
</glyph>
<glyph name="Delta" format="2">
  <advance width="742"/>
  <unicode hex="0394"/>
  <outline>
    <contour>
      <point x="26" y="0" type="line"/>
      <point x="666" y="0" type="line"/>
      <point x="436" y="741" type="line"/>
      <point x="431" y="741" type="line"/>
    </contour>
    <contour>
      <point x="603" y="12" type="line"/>
      <point x="632" y="46" type="line"/>
      <point x="72" y="46" type="line"/>
      <point x="83" y="12" type="line"/>
      <point x="449" y="684" type="line"/>
      <point x="408" y="684" type="line"/>
    </contour>
  </outline>
</glyph>
<glyph name="mu" format="2">
  <advance width="509"/>
  <unicode hex="03BC"/>
  <anchor x="232" y="-5" name="bottom"/>
  <anchor x="389" y="3" name="ogonek"/>
  <anchor x="281" y="408" name="top"/>
  <anchor x="418" y="282" name="topright"/>
  <outline>
    <contour>
      <point x="187" y="-11" type="curve" smooth="yes"/>
      <point x="265" y="-11"/>
      <point x="340" y="38"/>
      <point x="369" y="99" type="curve"/>
      <point x="364" y="110" type="line"/>
      <point x="354" y="0" type="line"/>
      <point x="396" y="0" type="line"/>
      <point x="444" y="391" type="line"/>
      <point x="397" y="391" type="line"/>
      <point x="371" y="183" type="line" smooth="yes"/>
      <point x="361" y="95"/>
      <point x="284" y="30"/>
      <point x="207" y="30" type="curve"/>
      <point x="149" y="33"/>
      <point x="121" y="69"/>
      <point x="126" y="115" type="curve" smooth="yes"/>
      <point x="160" y="391" type="line"/>
      <point x="113" y="391" type="line"/>
      <point x="78" y="103" type="line" smooth="yes"/>
      <point x="70" y="34"/>
      <point x="115" y="-11"/>
    </contour>
    <contour>
      <point x="109" y="355" type="line"/>
      <point x="36" y="-233" type="line"/>
      <point x="80" y="-233" type="line"/>
      <point x="153" y="355" type="line"/>
    </contour>
  </outline>
</glyph>
<glyph name="pi" format="2">
  <advance width="313"/>
  <unicode hex="03C0"/>
  <outline>
    <contour>
      <point x="44" y="333" type="line"/>
      <point x="38" y="290" type="line"/>
      <point x="91" y="290" type="line"/>
      <point x="55" y="0" type="line"/>
      <point x="99" y="0" type="line"/>
      <point x="135" y="290" type="line"/>
      <point x="258" y="290" type="line"/>
      <point x="222" y="0" type="line"/>
      <point x="265" y="0" type="line"/>
      <point x="301" y="290" type="line"/>
      <point x="346" y="290" type="line"/>
      <point x="351" y="333" type="line"/>
    </contour>
  </outline>
</glyph>
<glyph name="Germandbls" format="2">
  <advance width="818"/>
  <unicode hex="1E9E"/>
  <outline>
    <contour>
      <point x="552" y="-8" type="curve"/>
      <point x="668" y="-8"/>
      <point x="753" y="70"/>
      <point x="764" y="161" type="curve"/>
      <point x="776" y="259"/>
      <point x="699" y="296"/>
      <point x="626" y="338" type="curve"/>
      <point x="557" y="379"/>
      <point x="488" y="417"/>
      <point x="498" y="497" type="curve"/>
      <point x="506" y="565"/>
      <point x="570" y="618"/>
      <point x="638" y="618" type="curve"/>
      <point x="686" y="618"/>
      <point x="717" y="593"/>
      <point x="726" y="584" type="curve"/>
      <point x="747" y="620" type="line"/>
      <point x="706" y="675"/>
      <point x="605" y="729"/>
      <point x="486" y="729" type="curve"/>
      <point x="276" y="729"/>
      <point x="161" y="580"/>
      <point x="134" y="364" type="curve"/>
      <point x="89" y="0" type="line"/>
      <point x="138" y="0" type="line"/>
      <point x="183" y="360" type="line"/>
      <point x="210" y="588"/>
      <point x="327" y="689"/>
      <point x="486" y="689" type="curve"/>
      <point x="566" y="689"/>
      <point x="647" y="659"/>
      <point x="698" y="607" type="curve"/>
      <point x="715" y="629" type="line"/>
      <point x="700" y="640"/>
      <point x="681" y="654"/>
      <point x="636" y="654" type="curve"/>
      <point x="519" y="647"/>
      <point x="457" y="571"/>
      <point x="447" y="486" type="curve"/>
      <point x="436" y="392"/>
      <point x="514" y="339"/>
      <point x="593" y="298" type="curve"/>
      <point x="656" y="258"/>
      <point x="723" y="231"/>
      <point x="714" y="160" type="curve"/>
      <point x="703" y="78"/>
      <point x="616" y="35"/>
      <point x="555" y="35" type="curve"/>
      <point x="492" y="35"/>
      <point x="431" y="57"/>
      <point x="388" y="85" type="curve"/>
      <point x="363" y="45" type="line"/>
      <point x="404" y="17"/>
      <point x="467" y="-8"/>
    </contour>
  </outline>
</glyph>
<glyph name="endash" format="2">
  <advance width="512"/>
  <unicode hex="2013"/>
  <outline>
    <contour>
      <point x="127" y="218" type="line"/>
      <point x="122" y="175" type="line"/>
      <point x="425" y="175" type="line"/>
      <point x="430" y="218" type="line"/>
    </contour>
  </outline>
</glyph>
<glyph name="emdash" format="2">
  <advance width="704"/>
  <unicode hex="2014"/>
  <outline>
    <contour>
      <point x="126" y="218" type="line"/>
      <point x="121" y="175" type="line"/>
      <point x="626" y="175" type="line"/>
      <point x="631" y="218" type="line"/>
    </contour>
  </outline>
</glyph>
<glyph name="quoteleft" format="2">
  <advance width="165"/>
  <unicode hex="2018"/>
  <outline>
    <contour>
      <point x="175" y="593" type="curve"/>
      <point x="175" y="593" type="line"/>
      <point x="151" y="620"/>
      <point x="142" y="661"/>
      <point x="156" y="708" type="curve"/>
      <point x="146" y="710"/>
      <point x="135" y="713"/>
      <point x="124" y="715" type="curve"/>
      <point x="107" y="661"/>
      <point x="118" y="609"/>
      <point x="152" y="573" type="curve"/>
      <point x="160" y="579"/>
      <point x="168" y="586"/>
    </contour>
  </outline>
</glyph>
<glyph name="quoteright" format="2">
  <advance width="165"/>
  <unicode hex="2019"/>
  <outline>
    <contour>
      <point x="140" y="573" type="curve"/>
      <point x="140" y="573" type="line"/>
      <point x="184" y="609"/>
      <point x="208" y="661"/>
      <point x="203" y="715" type="curve"/>
      <point x="192" y="713"/>
      <point x="180" y="710"/>
      <point x="169" y="708" type="curve"/>
      <point x="173" y="661"/>
      <point x="154" y="620"/>
      <point x="122" y="593" type="curve"/>
      <point x="129" y="586"/>
      <point x="134" y="579"/>
    </contour>
  </outline>
</glyph>
<glyph name="quotedblright" format="2">
  <advance width="249"/>
  <unicode hex="201D"/>
  <outline>
    <contour>
      <point x="121" y="573" type="curve"/>
      <point x="121" y="573" type="line"/>
      <point x="165" y="609"/>
      <point x="189" y="661"/>
      <point x="184" y="715" type="curve"/>
      <point x="173" y="713"/>
      <point x="161" y="710"/>
      <point x="150" y="708" type="curve"/>
      <point x="154" y="661"/>
      <point x="135" y="620"/>
      <point x="103" y="593" type="curve"/>
      <point x="110" y="586"/>
      <point x="115" y="579"/>
    </contour>
    <contour>
      <point x="226" y="573" type="curve"/>
      <point x="226" y="573" type="line"/>
      <point x="269" y="609"/>
      <point x="293" y="661"/>
      <point x="289" y="715" type="curve"/>
      <point x="278" y="713"/>
      <point x="266" y="710"/>
      <point x="255" y="708" type="curve"/>
      <point x="258" y="661"/>
      <point x="239" y="620"/>
      <point x="207" y="593" type="curve"/>
      <point x="214" y="586"/>
      <point x="220" y="579"/>
    </contour>
  </outline>
</glyph>
<glyph name="quotedblbase" format="2">
  <advance width="281"/>
  <unicode hex="201E"/>
  <outline>
    <contour>
      <point x="34" y="-50" type="curve"/>
      <point x="34" y="-50" type="line"/>
      <point x="77" y="-14"/>
      <point x="101" y="38"/>
      <point x="97" y="93" type="curve"/>
      <point x="86" y="91"/>
      <point x="74" y="88"/>
      <point x="63" y="86" type="curve"/>
      <point x="66" y="39"/>
      <point x="47" y="-2"/>
      <point x="16" y="-29" type="curve"/>
      <point x="22" y="-36"/>
      <point x="28" y="-43"/>
    </contour>
    <contour>
      <point x="139" y="-50" type="curve"/>
      <point x="139" y="-50" type="line"/>
      <point x="181" y="-14"/>
      <point x="206" y="38"/>
      <point x="202" y="93" type="curve"/>
      <point x="191" y="91"/>
      <point x="178" y="88"/>
      <point x="168" y="86" type="curve"/>
      <point x="171" y="39"/>
      <point x="152" y="-2"/>
      <point x="120" y="-29" type="curve"/>
      <point x="126" y="-36"/>
      <point x="133" y="-43"/>
    </contour>
  </outline>
</glyph>
<glyph name="daggerdbl" format="2">
  <advance width="300"/>
  <unicode hex="2021"/>
  <outline>
    <contour>
      <point x="36" y="297" type="line"/>
      <point x="31" y="254" type="line"/>
      <point x="332" y="254" type="line"/>
      <point x="337" y="297" type="line"/>
    </contour>
    <contour>
      <point x="102" y="450" type="line"/>
      <point x="97" y="407" type="line"/>
      <point x="302" y="407" type="line"/>
      <point x="307" y="450" type="line"/>
    </contour>
    <contour>
      <point x="200" y="588" type="line"/>
      <point x="134" y="46" type="line"/>
      <point x="177" y="46" type="line"/>
      <point x="244" y="588" type="line"/>
    </contour>
  </outline>
</glyph>
<glyph name="bullet" format="2">
  <advance width="481"/>
  <unicode hex="2022"/>
  <outline>
    <contour>
      <point x="185" y="292" type="curve" smooth="yes"/>
      <point x="185" y="292" type="line" smooth="yes"/>
      <point x="185" y="246"/>
      <point x="220" y="210"/>
      <point x="266" y="210" type="curve" smooth="yes"/>
      <point x="322" y="210"/>
      <point x="370" y="255"/>
      <point x="370" y="311" type="curve" smooth="yes"/>
      <point x="370" y="357"/>
      <point x="336" y="394"/>
      <point x="289" y="394" type="curve" smooth="yes"/>
      <point x="234" y="394"/>
      <point x="185" y="348"/>
    </contour>
  </outline>
</glyph>
<glyph name="ellipsis" format="2">
  <advance width="492"/>
  <unicode hex="2026"/>
  <outline>
    <contour>
      <point x="56" y="30" type="curve" smooth="yes"/>
      <point x="56" y="30" type="line" smooth="yes"/>
      <point x="56" y="13"/>
      <point x="70" y="0"/>
      <point x="86" y="0" type="curve" smooth="yes"/>
      <point x="104" y="0"/>
      <point x="124" y="16"/>
      <point x="124" y="37" type="curve" smooth="yes"/>
      <point x="124" y="54"/>
      <point x="110" y="68"/>
      <point x="95" y="68" type="curve" smooth="yes"/>
      <point x="76" y="68"/>
      <point x="56" y="51"/>
    </contour>
    <contour>
      <point x="220" y="30" type="curve" smooth="yes"/>
      <point x="220" y="30" type="line" smooth="yes"/>
      <point x="220" y="13"/>
      <point x="234" y="0"/>
      <point x="250" y="0" type="curve" smooth="yes"/>
      <point x="268" y="0"/>
      <point x="288" y="16"/>
      <point x="288" y="37" type="curve" smooth="yes"/>
      <point x="288" y="54"/>
      <point x="274" y="68"/>
      <point x="259" y="68" type="curve" smooth="yes"/>
      <point x="240" y="68"/>
      <point x="220" y="51"/>
    </contour>
    <contour>
      <point x="384" y="30" type="curve" smooth="yes"/>
      <point x="384" y="30" type="line" smooth="yes"/>
      <point x="384" y="13"/>
      <point x="398" y="0"/>
      <point x="414" y="0" type="curve" smooth="yes"/>
      <point x="432" y="0"/>
      <point x="452" y="16"/>
      <point x="452" y="37" type="curve" smooth="yes"/>
      <point x="452" y="54"/>
      <point x="438" y="68"/>
      <point x="423" y="68" type="curve" smooth="yes"/>
      <point x="404" y="68"/>
      <point x="384" y="51"/>
    </contour>
  </outline>
</glyph>
<glyph name="guilsinglleft" format="2">
  <advance width="394"/>
  <unicode hex="2039"/>
  <outline>
    <contour>
      <point x="147" y="240" type="curve"/>
      <point x="297" y="67" type="line"/>
      <point x="303" y="116" type="line"/>
      <point x="273" y="152"/>
      <point x="233" y="204"/>
      <point x="203" y="240" type="curve"/>
      <point x="242" y="276"/>
      <point x="295" y="327"/>
      <point x="334" y="363" type="curve"/>
      <point x="340" y="413" type="line"/>
      <point x="293" y="373"/>
      <point x="194" y="280"/>
    </contour>
  </outline>
</glyph>
<glyph name="guilsinglright" format="2">
  <advance width="394"/>
  <unicode hex="203A"/>
  <outline>
    <contour>
      <point x="260" y="240" type="curve"/>
      <point x="110" y="67" type="line"/>
      <point x="104" y="116" type="line"/>
      <point x="134" y="152"/>
      <point x="174" y="204"/>
      <point x="204" y="240" type="curve"/>
      <point x="165" y="276"/>
      <point x="112" y="327"/>
      <point x="73" y="363" type="curve"/>
      <point x="67" y="413" type="line"/>
      <point x="114" y="373"/>
      <point x="213" y="280"/>
    </contour>
  </outline>
</glyph>
<glyph name="fraction" format="2">
  <advance width="300"/>
  <unicode hex="2044"/>
  <outline>
    <contour>
      <point x="405" y="759" type="curve"/>
      <point x="362" y="759" type="line"/>
      <point x="237" y="506"/>
      <point x="113" y="253"/>
      <point x="-12" y="0" type="curve"/>
      <point x="32" y="0" type="line"/>
      <point x="157" y="253"/>
      <point x="280" y="506"/>
    </contour>
  </outline>
</glyph>
<glyph name="foursuperior" format="2">
  <advance width="364"/>
  <unicode hex="2074"/>
  <outline>
    <contour>
      <point x="323" y="463" type="line"/>
      <point x="105" y="463" type="line"/>
      <point x="111" y="447" type="line"/>
      <point x="270" y="611" type="line"/>
      <point x="260" y="615" type="line"/>
      <point x="224" y="328" type="line"/>
      <point x="266" y="328" type="line"/>
      <point x="308" y="667" type="line"/>
      <point x="282" y="667" type="line"/>
      <point x="72" y="448" type="line"/>
      <point x="70" y="433" type="line"/>
      <point x="319" y="433" type="line"/>
    </contour>
  </outline>
</glyph>
<glyph name="naira" format="2">
  <advance width="830"/>
  <unicode hex="20A6"/>
  <anchor x="410" y="0" name="bottom"/>
  <anchor x="489" y="700" name="top"/>
  <outline>
    <contour>
      <point x="460" y="369" type="line"/>
      <point x="457" y="334" type="line"/>
      <point x="824" y="334" type="line"/>
      <point x="827" y="369" type="line"/>
    </contour>
    <contour>
      <point x="444" y="334" type="line"/>
      <point x="447" y="369" type="line"/>
      <point x="36" y="369" type="line"/>
      <point x="33" y="334" type="line"/>
    </contour>
    <contour>
      <point x="701" y="-17" type="line"/>
      <point x="790" y="710" type="line"/>
      <point x="741" y="710" type="line"/>
      <point x="665" y="85" type="line"/>
      <point x="681" y="80" type="line"/>
      <point x="199" y="725" type="line"/>
      <point x="196" y="725" type="line"/>
      <point x="108" y="0" type="line"/>
      <point x="157" y="0" type="line"/>
      <point x="232" y="624" type="line"/>
      <point x="218" y="623" type="line"/>
      <point x="699" y="-17" type="line"/>
    </contour>
  </outline>
</glyph>
<glyph name="peseta" format="2">
  <advance width="575"/>
  <unicode hex="20A7"/>
  <outline>
    <contour>
      <point x="516" y="520" type="line"/>
      <point x="514" y="484" type="line"/>
      <point x="599" y="484" type="line"/>
      <point x="600" y="520" type="line"/>
    </contour>
    <contour>
      <point x="164" y="484" type="line"/>
      <point x="165" y="520" type="line"/>
      <point x="77" y="520" type="line"/>
      <point x="75" y="484" type="line"/>
    </contour>
    <component base="P" xOffset="-5"/>
  </outline>
</glyph>
<glyph name="won" format="2">
  <advance width="999"/>
  <unicode hex="20A9"/>
  <outline>
    <contour>
      <point x="71" y="429" type="line"/>
      <point x="68" y="393" type="line"/>
      <point x="966" y="393" type="line"/>
      <point x="969" y="429" type="line"/>
    </contour>
    <component base="W" xOffset="4"/>
  </outline>
</glyph>
<glyph name="dong" format="2">
  <advance width="601"/>
  <unicode hex="20AB"/>
  <outline>
    <contour>
      <point x="386" y="687" type="line"/>
      <point x="382" y="652" type="line"/>
      <point x="604" y="652" type="line"/>
      <point x="608" y="687" type="line"/>
    </contour>
    <contour>
      <point x="65" y="35" type="line"/>
      <point x="61" y="0" type="line"/>
      <point x="527" y="0" type="line"/>
      <point x="531" y="35" type="line"/>
    </contour>
    <contour>
      <point x="282" y="117" type="curve" smooth="yes"/>
      <point x="360" y="113"/>
      <point x="424" y="151"/>
      <point x="459" y="223" type="curve"/>
      <point x="457" y="243" type="line"/>
      <point x="442" y="124" type="line"/>
      <point x="489" y="124" type="line"/>
      <point x="569" y="775" type="line"/>
      <point x="522" y="775" type="line"/>
      <point x="473" y="387" type="line"/>
      <point x="481" y="397" type="line"/>
      <point x="467" y="468"/>
      <point x="404" y="522"/>
      <point x="329" y="526" type="curve" smooth="yes"/>
      <point x="218" y="531"/>
      <point x="120" y="455"/>
      <point x="104" y="331" type="curve" smooth="yes"/>
      <point x="90" y="212"/>
      <point x="170" y="121"/>
    </contour>
    <contour>
      <point x="296" y="158" type="curve" smooth="yes"/>
      <point x="204" y="162"/>
      <point x="141" y="239"/>
      <point x="153" y="331" type="curve" smooth="yes"/>
      <point x="164" y="428"/>
      <point x="243" y="492"/>
      <point x="331" y="487" type="curve" smooth="yes"/>
      <point x="412" y="483"/>
      <point x="462" y="420"/>
      <point x="470" y="347" type="curve"/>
      <point x="463" y="297" type="line"/>
      <point x="447" y="212"/>
      <point x="380" y="153"/>
    </contour>
  </outline>
</glyph>
<glyph name="euro" format="2">
  <advance width="748"/>
  <unicode hex="20AC"/>
  <outline>
    <contour>
      <point x="96" y="422" type="line"/>
      <point x="92" y="381" type="line"/>
      <point x="435" y="381" type="line"/>
      <point x="439" y="422" type="line"/>
    </contour>
    <contour>
      <point x="82" y="302" type="line"/>
      <point x="78" y="262" type="line"/>
      <point x="420" y="262" type="line"/>
      <point x="425" y="302" type="line"/>
    </contour>
    <component base="C" xOffset="53"/>
  </outline>
</glyph>
<glyph name="kip" format="2">
  <advance width="610"/>
  <unicode hex="20AD"/>
  <anchor x="303" y="0" name="bottom"/>
  <anchor x="391" y="710" name="top"/>
  <outline>
    <contour>
      <point x="49" y="427" type="line"/>
      <point x="42" y="380" type="line"/>
      <point x="549" y="380" type="line"/>
      <point x="555" y="427" type="line"/>
    </contour>
    <component base="K"/>
  </outline>
</glyph>
<glyph name="rupeeIndian" format="2">
  <advance width="585"/>
  <unicode hex="20B9"/>
  <outline>
    <contour>
      <point x="145" y="298" type="line"/>
      <point x="235" y="298" type="line" smooth="yes"/>
      <point x="403" y="298"/>
      <point x="475" y="403"/>
      <point x="488" y="509" type="curve" smooth="yes"/>
      <point x="505" y="650"/>
      <point x="394" y="697"/>
      <point x="288" y="697" type="curve"/>
      <point x="348" y="663" type="line"/>
      <point x="580" y="663" type="line"/>
      <point x="586" y="710" type="line"/>
      <point x="196" y="710" type="line"/>
      <point x="190" y="663" type="line"/>
      <point x="290" y="663" type="line"/>
      <point x="392" y="663"/>
      <point x="448" y="591"/>
      <point x="438" y="507" type="curve" smooth="yes"/>
      <point x="429" y="434"/>
      <point x="380" y="345"/>
      <point x="239" y="345" type="curve" smooth="yes"/>
      <point x="151" y="345" type="line"/>
    </contour>
    <contour>
      <point x="438" y="0" type="line"/>
      <point x="495" y="0" type="line"/>
      <point x="337" y="323" type="line"/>
      <point x="279" y="322" type="line"/>
    </contour>
    <contour>
      <point x="165" y="478" type="line"/>
      <point x="567" y="478" type="line"/>
      <point x="572" y="519" type="line"/>
      <point x="169" y="519" type="line"/>
    </contour>
  </outline>
</glyph>
<glyph name="liraTurkish" format="2">
  <advance width="629"/>
  <unicode hex="20BA"/>
  <outline>
    <contour>
      <point x="570" y="316" type="curve"/>
      <point x="518" y="304" type="line"/>
      <point x="518" y="294"/>
      <point x="518" y="284"/>
      <point x="516" y="273" type="curve" smooth="yes"/>
      <point x="495" y="101"/>
      <point x="355" y="47"/>
      <point x="189" y="47" type="curve"/>
      <point x="189" y="21" type="line"/>
      <point x="274" y="710" type="line"/>
      <point x="225" y="710" type="line"/>
      <point x="138" y="0" type="line"/>
      <point x="187" y="0" type="line" smooth="yes"/>
      <point x="375" y="0"/>
      <point x="541" y="70"/>
      <point x="568" y="272" type="curve" smooth="yes"/>
      <point x="570" y="287"/>
      <point x="570" y="302"/>
    </contour>
    <contour>
      <point x="451" y="392" type="line"/>
      <point x="51" y="183" type="line"/>
      <point x="67" y="152" type="line"/>
      <point x="467" y="361" type="line"/>
    </contour>
    <contour>
      <point x="435" y="519" type="line"/>
      <point x="36" y="312" type="line"/>
      <point x="51" y="281" type="line"/>
      <point x="451" y="488" type="line"/>
    </contour>
  </outline>
</glyph>
<glyph name="manat" format="2">
  <advance width="716"/>
  <unicode hex="20BC"/>
  <outline>
    <contour>
      <point x="414" y="831" type="line"/>
      <point x="313" y="0" type="line"/>
      <point x="355" y="0" type="line"/>
      <point x="457" y="831" type="line"/>
    </contour>
    <contour>
      <point x="585" y="464" type="curve" smooth="yes"/>
      <point x="528" y="-6" type="line"/>
      <point x="576" y="-6" type="line"/>
      <point x="634" y="466" type="line" smooth="yes"/>
      <point x="653" y="622"/>
      <point x="558" y="712"/>
      <point x="420" y="712" type="curve" smooth="yes"/>
      <point x="420" y="712" type="line" smooth="yes"/>
      <point x="282" y="712"/>
      <point x="164" y="622"/>
      <point x="146" y="466" type="curve" smooth="yes"/>
      <point x="88" y="-6" type="line"/>
      <point x="136" y="-6" type="line"/>
      <point x="193" y="464" type="line" smooth="yes"/>
      <point x="208" y="588"/>
      <point x="302" y="665"/>
      <point x="414" y="665" type="curve" smooth="yes"/>
      <point x="527" y="665"/>
      <point x="600" y="588"/>
    </contour>
  </outline>
</glyph>
<glyph name="ruble" format="2">
  <advance width="548"/>
  <unicode hex="20BD"/>
  <outline>
    <contour>
      <point x="14" y="184" type="line"/>
      <point x="9" y="140" type="line"/>
      <point x="271" y="140" type="line"/>
      <point x="275" y="184" type="line"/>
    </contour>
    <contour>
      <point x="33" y="344" type="line"/>
      <point x="29" y="300" type="line"/>
      <point x="193" y="300" type="line"/>
      <point x="197" y="344" type="line"/>
    </contour>
    <component base="P" xOffset="-2"/>
  </outline>
</glyph>
<glyph name="numero" format="2">
  <advance width="1306"/>
  <unicode hex="2116"/>
  <outline>
    <contour>
      <point x="875" y="235" type="line"/>
      <point x="870" y="193" type="line"/>
      <point x="1246" y="193" type="line"/>
      <point x="1251" y="235" type="line"/>
    </contour>
    <component base="N"/>
    <component base="o" xOffset="827" yOffset="320"/>
  </outline>
</glyph>
<glyph name="trademark" format="2">
  <advance width="569"/>
  <unicode hex="2122"/>
  <outline>
    <contour>
      <point x="529" y="663" type="line"/>
      <point x="502" y="448" type="line"/>
      <point x="535" y="448" type="line"/>
      <point x="569" y="718" type="line"/>
      <point x="422" y="557" type="line"/>
      <point x="428" y="557" type="line"/>
      <point x="322" y="718" type="line"/>
      <point x="288" y="448" type="line"/>
      <point x="319" y="448" type="line"/>
      <point x="346" y="662" type="line"/>
      <point x="330" y="656" type="line"/>
      <point x="420" y="511" type="line"/>
      <point x="544" y="656" type="line"/>
    </contour>
    <contour>
      <point x="111" y="707" type="line"/>
      <point x="107" y="677" type="line"/>
      <point x="171" y="677" type="line"/>
      <point x="142" y="448" type="line"/>
      <point x="176" y="448" type="line"/>
      <point x="205" y="677" type="line"/>
      <point x="270" y="677" type="line"/>
      <point x="273" y="707" type="line"/>
    </contour>
  </outline>
</glyph>
<glyph name="summation" format="2">
  <advance width="512"/>
  <unicode hex="2211"/>
  <outline>
    <contour>
      <point x="172" y="754" type="line"/>
      <point x="236" y="344" type="line"/>
      <point x="71" y="-67" type="line"/>
      <point x="428" y="-67" type="line"/>
      <point x="414" y="-25" type="line"/>
      <point x="134" y="-25" type="line"/>
      <point x="282" y="344" type="line"/>
      <point x="224" y="712" type="line"/>
      <point x="504" y="712" type="line"/>
      <point x="529" y="754" type="line"/>
    </contour>
  </outline>
</glyph>
<glyph name="minus" format="2">
  <advance width="753"/>
  <unicode hex="2212"/>
  <outline>
    <contour>
      <point x="112" y="219" type="line"/>
      <point x="107" y="177" type="line"/>
      <point x="469" y="177" type="line"/>
      <point x="474" y="219" type="line"/>
    </contour>
  </outline>
</glyph>
<glyph name="bulletoperator" format="2">
  <advance width="193"/>
  <unicode hex="2219"/>
  <outline>
    <contour>
      <point x="102" y="237" type="curve" smooth="yes"/>
      <point x="133" y="236"/>
      <point x="162" y="260"/>
      <point x="166" y="291" type="curve" smooth="yes"/>
      <point x="170" y="323"/>
      <point x="147" y="351"/>
      <point x="116" y="353" type="curve" smooth="yes"/>
      <point x="84" y="354"/>
      <point x="55" y="332"/>
      <point x="51" y="299" type="curve" smooth="yes"/>
      <point x="47" y="267"/>
      <point x="70" y="239"/>
    </contour>
  </outline>
</glyph>
<glyph name="greaterequal" format="2">
  <advance width="555"/>
  <unicode hex="2265"/>
  <outline>
    <contour>
      <point x="151" y="727" type="curve"/>
      <point x="144" y="670" type="line"/>
      <point x="250" y="604"/>
      <point x="356" y="539"/>
      <point x="461" y="473" type="curve"/>
      <point x="341" y="408"/>
      <point x="217" y="342"/>
      <point x="96" y="276" type="curve"/>
      <point x="89" y="219" type="line"/>
      <point x="246" y="303"/>
      <point x="403" y="388"/>
      <point x="560" y="473" type="curve"/>
      <point x="424" y="557"/>
      <point x="288" y="643"/>
    </contour>
    <contour>
      <point x="76" y="124" type="line"/>
      <point x="71" y="81" type="line"/>
      <point x="433" y="81" type="line"/>
      <point x="438" y="124" type="line"/>
    </contour>
  </outline>
</glyph>
<glyph name="lozenge" format="2">
  <advance width="453"/>
  <unicode hex="25CA"/>
  <outline>
    <contour>
      <point x="327" y="733" type="line"/>
      <point x="125" y="385" type="line"/>
      <point x="241" y="37" type="line"/>
      <point x="443" y="385" type="line"/>
    </contour>
    <contour>
      <point x="316" y="652" type="line"/>
      <point x="408" y="385" type="line"/>
      <point x="251" y="119" type="line"/>
      <point x="159" y="385" type="line"/>
    </contour>
  </outline>
</glyph>
<glyph name="fl" format="2">
  <advance width="527"/>
  <unicode hex="FB02"/>
  <outline>
    <contour>
      <point x="91" y="0" type="line"/>
      <point x="138" y="0" type="line"/>
      <point x="180" y="347" type="line"/>
      <point x="306" y="347" type="line"/>
      <point x="311" y="390" type="line"/>
      <point x="185" y="390" type="line"/>
      <point x="210" y="588" type="line" smooth="yes"/>
      <point x="222" y="690"/>
      <point x="255" y="725"/>
      <point x="313" y="725" type="curve" smooth="yes"/>
      <point x="327" y="725"/>
      <point x="338" y="722"/>
      <point x="346" y="715" type="curve"/>
      <point x="371" y="749" type="line"/>
      <point x="353" y="759"/>
      <point x="331" y="764"/>
      <point x="313" y="764" type="curve" smooth="yes"/>
      <point x="228" y="764"/>
      <point x="177" y="712"/>
      <point x="162" y="587" type="curve" smooth="yes"/>
      <point x="138" y="390" type="line"/>
      <point x="71" y="390" type="line"/>
      <point x="66" y="347" type="line"/>
      <point x="133" y="347" type="line"/>
    </contour>
    <component base="l" xOffset="301"/>
  </outline>
</glyph>
<glyph name="brevecomb_tildecomb" format="2">
  <anchor x="316" y="391" name="_top"/>
  <anchor x="369" y="820" name="top"/>
  <outline>
    <contour>
      <point x="407.174" y="702.4839999999999" type="curve"/>
      <point x="452.012" y="699.622"/>
      <point x="492.08" y="738.736"/>
      <point x="499.712" y="818.872" type="curve"/>
      <point x="469.18399999999997" y="821.7339999999999" type="line"/>
      <point x="459.644" y="757.816"/>
      <point x="436.748" y="735.874"/>
      <point x="410.036" y="737.7819999999999" type="curve"/>
      <point x="385.23199999999997" y="738.736"/>
      <point x="369.96799999999996" y="758.77"/>
      <point x="354.704" y="778.804" type="curve"/>
      <point x="337.532" y="802.654"/>
      <point x="319.406" y="827.458"/>
      <point x="282.2" y="829.366" type="curve"/>
      <point x="235.45399999999998" y="832.228"/>
      <point x="192.524" y="790.252"/>
      <point x="182.98399999999998" y="712.9780000000001" type="curve"/>
      <point x="213.512" y="709.162" type="line"/>
      <point x="224.006" y="773.0799999999999"/>
      <point x="252.62599999999998" y="794.068"/>
      <point x="276.476" y="793.114" type="curve"/>
      <point x="301.28" y="791.206"/>
      <point x="314.63599999999997" y="772.126"/>
      <point x="328.94599999999997" y="753.046" type="curve"/>
      <point x="348.026" y="729.1959999999999"/>
      <point x="367.106" y="704.392"/>
    </contour>
    <component base="brevecomb"/>
  </outline>
</glyph>
<glyph name="circumflexcomb_tildecomb" format="2">
  <anchor x="283" y="443" name="_top"/>
  <anchor x="332" y="793" name="top"/>
  <outline>
    <contour>
      <point x="391.174" y="715.4839999999999" type="curve"/>
      <point x="436.012" y="712.622"/>
      <point x="476.08" y="751.736"/>
      <point x="483.712" y="831.872" type="curve"/>
      <point x="453.18399999999997" y="834.7339999999999" type="line"/>
      <point x="443.644" y="770.816"/>
      <point x="420.748" y="748.874"/>
      <point x="394.036" y="750.7819999999999" type="curve"/>
      <point x="369.23199999999997" y="751.736"/>
      <point x="353.96799999999996" y="771.77"/>
      <point x="338.704" y="791.804" type="curve"/>
      <point x="321.532" y="815.654"/>
      <point x="303.406" y="840.458"/>
      <point x="266.2" y="842.366" type="curve"/>
      <point x="219.45399999999998" y="845.228"/>
      <point x="176.524" y="803.252"/>
      <point x="166.98399999999998" y="725.9780000000001" type="curve"/>
      <point x="197.512" y="722.162" type="line"/>
      <point x="208.006" y="786.0799999999999"/>
      <point x="236.62599999999998" y="807.068"/>
      <point x="260.476" y="806.114" type="curve"/>
      <point x="285.28" y="804.206"/>
      <point x="298.63599999999997" y="785.126"/>
      <point x="312.94599999999997" y="766.046" type="curve"/>
      <point x="332.026" y="742.1959999999999"/>
      <point x="351.106" y="717.392"/>
    </contour>
    <component base="circumflexcomb"/>
  </outline>
</glyph>
